<svg width="32" height="32" viewBox="0 0 32 32" fill="none" xmlns="http://www.w3.org/2000/svg">
<path d="M30.5103 11.2399L19.4328 10.5736L13.3166 1.31213C12.7352 0.429817 11.1293 0.860128 11.0668 1.91496L10.4005 12.9938L1.13936 19.1099C0.698052 19.4006 0.492849 19.9411 0.629774 20.4521C0.766698 20.9631 1.21462 21.3285 1.74219 21.3597L12.8207 22.0261L18.9371 31.2872C19.2279 31.7285 19.7683 31.9337 20.2793 31.7967C20.7903 31.6598 21.1557 31.2119 21.1869 30.6843L21.8533 19.6058L31.1132 13.4897C31.5545 13.199 31.7597 12.6585 31.6227 12.1475C31.4858 11.6365 31.0376 11.2712 30.5103 11.2399Z" fill="black"/>
</svg>
