<svg width="33" height="33" viewBox="0 0 33 33" fill="none" xmlns="http://www.w3.org/2000/svg">
<g clip-path="url(#clip0_397_589)">
<path d="M21.0664 27.2385L27.6931 20.6119L29.0183 21.9372L22.3917 28.5638L21.0664 27.2385Z" fill="black"/>
<path d="M8.06299 6.28076L10.7137 3.63006L26.3687 19.285L23.718 21.9357L8.06299 6.28076Z" fill="black"/>
<path d="M4.08643 10.2566L6.73709 7.60593L22.3921 23.2609L19.7414 25.9116L4.08643 10.2566Z" fill="black"/>
<path d="M30.3499 23.2622L23.7222 29.8899L25.0478 31.2154C26.1441 32.3119 27.926 32.3138 29.0199 31.22L31.68 28.5598C32.7738 27.466 32.7732 25.6855 31.6786 24.591L30.3499 23.2622Z" fill="black"/>
<path d="M9.13743 2.55592L1.73377 0.0879677C1.39653 -0.0238824 1.02561 0.0634107 0.774481 0.314542C0.523349 0.565674 0.436056 0.936529 0.547969 1.27383L3.01592 8.67743L9.13743 2.55592Z" fill="black"/>
<path d="M26.9162 1.14614C26.5502 0.780095 25.9568 0.780032 25.5906 1.14614L18.2378 8.49906L24.8654 15.1267L26.191 13.8012L24.2027 11.8129C23.8363 11.4465 23.8363 10.8537 24.2027 10.4874C24.569 10.121 25.1619 10.121 25.5282 10.4874L27.5165 12.4757L28.842 11.15L26.8538 9.16173C26.4875 8.7955 26.4875 8.20257 26.8538 7.83621C27.22 7.46986 27.813 7.46986 28.1793 7.83621L30.1676 9.82452L32.2184 7.77373C32.5845 7.40768 32.5843 6.81425 32.2184 6.44821L26.9162 1.14614Z" fill="black"/>
<path d="M8.23372 31.7584L10.2845 29.7076L8.29621 27.7193C7.92985 27.353 7.92985 26.76 8.29621 26.3938C8.66257 26.0274 9.2555 26.0274 9.62173 26.3938L11.61 28.382L12.9357 27.0565L10.9474 25.0681C10.581 24.7019 10.581 24.109 10.9474 23.7426C11.3137 23.3763 11.9065 23.3763 12.2729 23.7426L14.2612 25.7309L15.5867 24.4054L8.959 17.7778L1.60608 25.1306C1.24003 25.4967 1.24003 26.0902 1.60608 26.4563L6.90821 31.7584C7.27419 32.1243 7.86768 32.1243 8.23372 31.7584Z" fill="black"/>
</g>
<defs>
<clipPath id="clip0_397_589">
<rect width="32" height="32" fill="white" transform="translate(0.5 0.0395508)"/>
</clipPath>
</defs>
</svg>
