<svg width="33" height="33" viewBox="0 0 33 33" fill="none" xmlns="http://www.w3.org/2000/svg">
<g clip-path="url(#clip0_397_575)">
<path d="M32.5004 2.97729V7.66477H4.37549V2.97729C4.37549 2.45979 4.79549 2.03979 5.31298 2.03979H10.0005V4.85228C10.0005 5.36978 10.4205 5.78978 10.938 5.78978C11.4555 5.78978 11.8755 5.36978 11.8755 4.85228V2.03979H17.5004V4.85228C17.5004 5.36978 17.9204 5.78978 18.4379 5.78978C18.9554 5.78978 19.3754 5.36978 19.3754 4.85228V2.03979H25.0004V4.85228C25.0004 5.36978 25.4204 5.78978 25.9379 5.78978C26.4554 5.78978 26.8754 5.36978 26.8754 4.85228V2.03979H31.5629C32.0804 2.03979 32.5004 2.45979 32.5004 2.97729Z" fill="#050505"/>
<path d="M32.4903 9.57422C32.3653 16.3454 30.909 24.4985 28.4834 32.0398H31.5628C32.0803 32.0398 32.5003 31.6198 32.5003 31.1023L32.4903 9.57422Z" fill="#050505"/>
<path d="M11.875 0.977295V2.03979H10V0.977295C10 0.459795 10.42 0.0397949 10.9375 0.0397949C11.455 0.0397949 11.875 0.459795 11.875 0.977295Z" fill="#050505"/>
<path d="M19.375 0.977295V2.03979H17.5V0.977295C17.5 0.459795 17.92 0.0397949 18.4375 0.0397949C18.955 0.0397949 19.375 0.459795 19.375 0.977295Z" fill="#050505"/>
<path d="M26.875 0.977295V2.03979H25V0.977295C25 0.459795 25.42 0.0397949 25.9375 0.0397949C26.455 0.0397949 26.875 0.459795 26.875 0.977295Z" fill="#050505"/>
<path d="M18.4376 14.2446C14.7057 14.2446 10.9082 17.2902 9.97196 21.0346C9.07884 24.6083 11.177 27.3696 14.6876 27.3696C18.4194 27.3696 22.2169 24.3239 23.1532 20.5796C24.0463 17.0059 21.9482 14.2446 18.4376 14.2446ZM20.3125 21.7446H16.5626C15.9526 21.7446 15.5051 21.1702 15.6532 20.5796L16.5907 16.8296C16.7163 16.3271 17.2257 16.0221 17.7276 16.1477C18.2294 16.2734 18.535 16.7821 18.4094 17.2846L17.7632 19.8696H20.3125C20.83 19.8696 21.25 20.2896 21.25 20.8071C21.25 21.3246 20.83 21.7446 20.3125 21.7446ZM4.36573 9.55713C4.16198 20.2002 0.588246 30.7064 0.551372 30.8139C0.343872 31.4164 0.790121 32.057 1.43762 32.057H26.5119C28.7875 25.1539 30.4806 16.859 30.6156 9.55713H4.36573ZM24.9719 21.0346C23.8382 25.5708 19.2869 29.2446 14.6876 29.2446C9.98196 29.2446 6.95635 25.3677 8.15322 20.5796C9.28696 16.0434 13.8382 12.3696 18.4376 12.3696C23.1432 12.3696 26.1688 16.2465 24.9719 21.0346ZM18.4376 14.2446C14.7057 14.2446 10.9082 17.2902 9.97196 21.0346C9.07884 24.6083 11.177 27.3696 14.6876 27.3696C18.4194 27.3696 22.2169 24.3239 23.1532 20.5796C24.0463 17.0059 21.9482 14.2446 18.4376 14.2446ZM20.3125 21.7446H16.5626C15.9526 21.7446 15.5051 21.1702 15.6532 20.5796L16.5907 16.8296C16.7163 16.3271 17.2257 16.0221 17.7276 16.1477C18.2294 16.2734 18.535 16.7821 18.4094 17.2846L17.7632 19.8696H20.3125C20.83 19.8696 21.25 20.2896 21.25 20.8071C21.25 21.3246 20.83 21.7446 20.3125 21.7446ZM18.4376 14.2446C14.7057 14.2446 10.9082 17.2902 9.97196 21.0346C9.07884 24.6083 11.177 27.3696 14.6876 27.3696C18.4194 27.3696 22.2169 24.3239 23.1532 20.5796M20.3125 21.7446H16.5626C15.9526 21.7446 15.5051 21.1702 15.6532 20.5796L16.5907 16.8296C16.7163 16.3271 17.2257 16.0221 17.7276 16.1477C18.2294 16.2734 18.535 16.7821 18.4094 17.2846L17.7632 19.8696H20.3125C20.83 19.8696 21.25 20.2896 21.25 20.8071C21.25 21.3246 20.83 21.7446 20.3125 21.7446Z" fill="#050505"/>
</g>
<defs>
<clipPath id="clip0_397_575">
<rect width="32" height="32" fill="white" transform="translate(0.5 0.0397949)"/>
</clipPath>
</defs>
</svg>
