<svg width="32" height="33" viewBox="0 0 32 33" fill="none" xmlns="http://www.w3.org/2000/svg">
<g clip-path="url(#clip0_397_560)">
<path d="M4.75841 1.24194L1.79004 4.06926H4.75841V1.24194Z" fill="black"/>
<path d="M23.5988 19.6019C23.1971 20.0027 22.768 20.3597 22.3174 20.673L24.1744 22.5259L26.4538 20.2515L24.6104 18.4121C24.3092 18.8317 23.9718 19.2298 23.5988 19.6019Z" fill="black"/>
<path d="M31.0508 24.8389L27.7808 21.5759L25.5015 23.8504L28.7686 27.1105C29.3978 27.7383 30.4217 27.7382 31.0509 27.1105C31.6755 26.5124 31.6756 25.4371 31.0508 24.8389Z" fill="black"/>
<path d="M11.5752 7.60416C9.59024 9.54422 8.86199 12.5692 9.7048 15.2012L14.7751 11.8286C15.1944 11.5497 15.759 11.6518 16.0541 12.06L17.5991 14.1971L20.6748 11.8625C21.0872 11.5494 21.6752 11.6299 21.9884 12.0423C22.3015 12.4548 22.2209 13.0428 21.8085 13.3559L17.9684 16.2708C17.5671 16.5883 16.9331 16.4942 16.6417 16.0733L15.0629 13.8892L10.4987 16.925C14.4184 23.3057 24.5457 20.4428 24.4893 12.9392C24.6255 6.34903 16.1467 2.85572 11.5752 7.60416Z" fill="black"/>
<path d="M27.4445 28.4378C27.1186 28.1126 23.2526 24.255 23.0303 24.0332V27.795C23.0303 28.3128 22.6106 28.7325 22.0928 28.7325H8.42284C8.53602 29.7312 7.91565 32.0113 9.53721 32.0398H29.0665C30.4785 31.9976 30.1533 30.3899 30.1809 29.4437C29.1884 29.5206 28.1947 29.1829 27.4445 28.4378Z" fill="black"/>
<path d="M21.1551 22.1622L20.6058 21.614C15.2113 24.0884 8.26352 20.2559 7.58021 14.2822C7.25083 14.4308 4.23802 16.6384 3.90352 16.4985C3.00908 16.5327 2.60733 15.2475 3.39064 14.7755L7.52421 12.0804C7.89421 5.62248 15.6081 1.48373 21.1551 4.51717V1.10604C21.1551 0.490607 20.6562 0.0397949 20.0408 0.0397949H6.63352C6.58239 7.53736 7.69414 5.71986 0.491145 5.94417L0.480957 25.7431C0.480957 26.3585 0.883019 26.8575 1.49846 26.8575H21.1551V22.1622Z" fill="black"/>
<path d="M26.3643 12.9396C26.3643 14.2645 26.0918 15.5474 25.5739 16.7251L30.1807 21.322V2.20185C30.1807 1.58791 29.6841 1.08966 29.0703 1.08747L23.0303 1.06616V5.75466C25.1464 7.5416 26.372 10.171 26.3643 12.9396Z" fill="black"/>
</g>
<defs>
<clipPath id="clip0_397_560">
<rect width="32" height="32" fill="white" transform="translate(0 0.0397949)"/>
</clipPath>
</defs>
</svg>
