<svg width="25" height="25" viewBox="0 0 25 25" fill="none" xmlns="http://www.w3.org/2000/svg">
<path d="M12.0215 0.0390625C5.39748 0.0390625 0.0214844 5.41506 0.0214844 12.0391C0.0214844 18.6631 5.39748 24.0391 12.0215 24.0391C18.6455 24.0391 24.0215 18.6631 24.0215 12.0391C24.0215 5.41506 18.6455 0.0390625 12.0215 0.0390625ZM17.5895 8.19906C17.4095 10.0951 16.6295 14.7031 16.2335 16.8271C16.0655 17.7271 15.7295 18.0271 15.4175 18.0631C14.7215 18.1231 14.1935 17.6071 13.5215 17.1631C12.4655 16.4671 11.8655 16.0351 10.8455 15.3631C9.65749 14.5831 10.4255 14.1511 11.1095 13.4551C11.2895 13.2751 14.3615 10.4791 14.4215 10.2271C14.4298 10.1889 14.4287 10.1493 14.4183 10.1116C14.4078 10.074 14.3883 10.0395 14.3615 10.0111C14.2895 9.95106 14.1935 9.97506 14.1095 9.98706C14.0015 10.0111 12.3215 11.1271 9.04549 13.3351C8.56549 13.6591 8.13348 13.8271 7.74948 13.8151C7.31748 13.8031 6.50148 13.5751 5.88948 13.3711C5.13348 13.1311 4.54548 12.9991 4.59348 12.5791C4.61748 12.3631 4.91748 12.1471 5.48148 11.9191C8.98549 10.3951 11.3135 9.38706 12.4775 8.90706C15.8135 7.51506 16.4975 7.27506 16.9535 7.27506C17.0495 7.27506 17.2775 7.29906 17.4215 7.41906C17.5415 7.51506 17.5775 7.64706 17.5895 7.74306C17.5775 7.81506 17.6015 8.03106 17.5895 8.19906Z" fill="#2F2F2F"/>
</svg>
