<svg width="25" height="25" viewBox="0 0 25 25" fill="none" xmlns="http://www.w3.org/2000/svg">
<path fill-rule="evenodd" clip-rule="evenodd" d="M12.0453 0.0390625H11.9906C5.38026 0.0390625 0.0214844 5.39941 0.0214844 12.0117V12.0664C0.0214844 18.6787 5.38026 24.0391 11.9906 24.0391H12.0453C18.6557 24.0391 24.0144 18.6787 24.0144 12.0664V12.0117C24.0144 5.39941 18.6557 0.0390625 12.0453 0.0390625ZM19.8014 11.365C19.6358 9.4933 18.7784 7.75697 17.3872 6.47638C15.9876 5.18822 14.172 4.47855 12.2731 4.47855C8.10542 4.47855 4.71449 7.87049 4.71449 12.0394C4.71449 13.4385 5.10031 14.8015 5.83079 15.9888L4.20172 19.596L9.41758 19.0402C10.3246 19.4118 11.2845 19.6002 12.2722 19.6002C12.532 19.6002 12.7984 19.5867 13.0657 19.559C13.3011 19.5337 13.539 19.4967 13.7727 19.4496C17.2628 18.7442 19.8106 15.6457 19.8308 12.0797V12.0394C19.8308 11.8123 19.8216 11.5853 19.8014 11.365ZM6.73275 17.7646L9.61849 17.4569L9.61933 17.4585L9.7286 17.5115C9.80341 17.5477 9.88327 17.583 9.96481 17.6158C10.6986 17.9218 11.4753 18.0766 12.2747 18.0766C12.4992 18.0766 12.7253 18.0639 12.9455 18.0387C13.1574 18.016 13.37 17.9807 13.5777 17.9345C16.2978 17.3324 18.2421 14.968 18.306 12.184L18.3061 12.1747C18.3069 12.1286 18.3077 12.0852 18.3077 12.041C18.3077 11.8762 18.3001 11.7089 18.2866 11.5424C18.0319 8.43721 15.39 6.00467 12.2731 6.00467C8.94601 6.00467 6.23931 8.71216 6.23931 12.0402C6.23931 13.3166 6.6344 14.5375 7.38252 15.5709C7.39681 15.5902 7.40942 15.607 7.42203 15.6238L7.59435 15.8551L6.73275 17.7646ZM8.78631 9.97763C8.78715 13.0492 11.2854 15.549 14.3561 15.549C15.1344 15.5482 15.7674 14.915 15.7674 14.1372C15.7674 14.0557 15.7615 13.9775 15.7481 13.9035C15.7195 13.737 15.6632 13.5781 15.5791 13.4326C15.5665 13.4116 15.5463 13.3981 15.522 13.3939L13.4768 13.0694C13.4738 13.0689 13.4711 13.0687 13.4686 13.0686C13.4668 13.0685 13.4651 13.0685 13.4634 13.0685C13.444 13.0685 13.4247 13.0753 13.4104 13.0887C13.212 13.2678 13.0691 13.4965 12.9977 13.7513L12.9632 13.8741L12.8447 13.827C11.778 13.4066 10.9256 12.5548 10.507 11.4886L10.4608 11.3701L10.5835 11.3356C10.8382 11.2641 11.0668 11.1212 11.2459 10.9227C11.2618 10.9051 11.2694 10.8815 11.2652 10.8571L10.9407 8.81139C10.9374 8.78784 10.9231 8.76766 10.9021 8.75505C10.7567 8.67013 10.5986 8.61379 10.4322 8.58604C10.3565 8.57259 10.2775 8.56586 10.1977 8.56586C9.42096 8.56586 8.78715 9.19901 8.78631 9.97763Z" fill="#2F2F2F"/>
</svg>
