<svg width="145" height="65" viewBox="0 0 145 65" fill="none" xmlns="http://www.w3.org/2000/svg">
<g clip-path="url(#clip0_643_1467)">
<path d="M70.0251 23.957V23.9946C70.0251 23.9946 70.0251 24.0622 70.0176 24.0847C70.0176 24.0397 70.0176 24.0021 70.0251 23.957Z" fill="#050505"/>
<path d="M87.4009 22.0642C87.4009 22.0642 88.1324 20.2238 88.0117 19.0745C87.8232 17.2942 87.0841 16.2651 86.6467 15.8069C86.6241 15.7844 86.6014 15.7618 86.5788 15.7393C86.5487 15.7093 86.526 15.6867 86.5034 15.6642C85.8322 18.2107 84.256 20.4417 82.0086 21.9215C82.0086 21.9215 81.9935 21.929 81.986 21.9365C81.1866 22.5074 79.633 23.0633 79.633 23.0633L79.4595 23.1158C79.4595 23.1158 79.4595 23.0257 79.4444 22.8755C79.4294 22.6651 79.4067 22.3346 79.3464 21.9966C79.3464 21.9741 79.3464 21.959 79.3389 21.9365C79.2634 21.5985 79.1503 21.2604 78.9693 20.9224C78.728 20.4567 78.3886 19.9985 78.0945 19.6679C78.2001 21.0726 78.1246 22.7928 77.461 24.0623C77.2724 24.4154 77.0387 24.7309 76.7822 25.0238C76.7672 25.0388 76.7596 25.0464 76.7521 25.0614C76.556 25.2792 76.3524 25.482 76.1337 25.6773C75.651 26.1055 75.1231 26.4961 74.7988 27.037C74.6555 27.2698 74.5499 27.5252 74.467 27.7881C74.3689 27.3825 74.3538 26.9393 74.4519 26.5487C74.565 26.1205 74.829 25.7449 75.0854 25.1215C75.3041 24.5806 75.5152 23.8595 75.5002 23.4013C75.5002 23.2961 75.4775 23.206 75.4549 23.1234C75.3418 23.3562 75.1985 23.5816 75.025 23.837C74.6932 24.3252 74.2633 24.9111 73.8184 25.2942C73.4564 25.6097 73.0868 25.7825 72.755 26.0229C72.5514 26.1656 72.3628 26.3234 72.2045 26.5111C72.2045 26.5111 71.4277 27.2022 71.7595 28.2614C71.9254 28.7872 72.0461 28.9149 72.0913 28.9525C71.7067 28.8248 71.3372 28.5919 71.0958 28.2614C70.8545 27.9234 70.7565 27.4802 70.7791 27.0595C70.7791 27.0144 70.7866 26.9769 70.7942 26.9393C70.7942 26.9769 70.8017 26.9543 70.8017 26.8642C70.8243 26.6839 70.8696 26.5111 70.9299 26.3459C71.2618 25.5722 72.1215 24.483 72.3251 24.1149C72.8757 23.1459 73.577 21.1027 72.2497 19.6604C71.7143 19.082 71.4126 18.4736 71.2391 17.9703C71.405 18.1205 71.5936 18.2633 71.7897 18.3684C72.1366 18.5562 72.5288 18.6539 72.8983 18.8041C73.4111 19.0144 73.8938 19.3224 74.2181 19.7506C74.5273 20.1562 74.7007 20.667 74.7762 21.1778C74.7988 21.3506 74.8139 21.5309 74.8139 21.7036C75.108 21.4407 75.3795 21.1553 75.6057 20.8323C76.2619 19.9083 76.5711 18.7365 76.6012 17.5872C76.6163 17.1064 76.5786 16.6332 76.4429 16.1825C76.3147 15.7468 76.0884 15.3337 75.8169 14.9656C76.1789 14.9506 76.5635 15.0032 76.8954 15.1459C77.3479 15.3412 77.7099 15.7243 78.0266 16.1074C78.1699 16.2877 78.3057 16.4755 78.4263 16.6708C78.5168 16.2426 78.5771 15.8069 78.5998 15.3712C78.6375 14.7478 78.5998 14.1243 78.5017 13.5083C78.4263 13.0576 78.3132 12.6144 78.1171 12.2013C78.0417 12.036 77.9436 11.8858 77.8456 11.7356C77.8456 11.7356 78.9542 10.1656 80.3947 10.1431C81.6541 10.1205 82.1896 11.1121 82.3027 11.3675C82.3103 11.39 82.3178 11.405 82.3253 11.4276C82.6119 10.406 82.4309 9.31678 81.7673 8.70081C81.6617 8.60316 81.5335 8.51302 81.3675 8.40786C81.3675 8.40786 81.3525 8.40786 81.3374 8.39283C81.262 8.34025 81.0659 8.19002 81.1338 7.91208C81.2167 7.56654 81.4731 6.99565 81.5938 6.48485C81.7296 5.89142 81.5938 5.33556 81.5486 5.16279C81.5486 5.16279 81.5486 5.14776 81.5486 5.14025C81.5486 5.11772 81.541 5.10269 81.541 5.10269C81.5184 5.03509 81.4958 4.96748 81.4581 4.89988C81.3751 4.75715 81.2469 4.62194 81.1187 4.51678C81.1187 4.7872 81.081 5.05762 80.9829 5.31302C80.9226 5.47828 80.8321 5.63603 80.7341 5.77875C80.3494 6.28955 79.4218 6.60504 79.4218 6.60504C79.9271 6.07922 80.3193 5.4257 80.4022 4.72711C80.4927 3.93086 80.1911 3.07452 79.5349 2.58626C79.2182 2.34589 78.8109 2.19565 78.4037 2.17312C78.0643 2.15058 77.7174 2.21067 77.4384 2.2933C77.0914 2.39847 76.8426 2.54119 76.5409 2.75903C76.3825 2.87922 76.2166 3.01443 76.0582 3.16466C75.8697 3.11208 75.6736 3.08955 75.4775 3.08955C75.2211 3.08955 74.9572 3.11208 74.7234 3.22476C74.5424 3.3149 74.384 3.45011 74.2784 3.62288C74.2256 3.71302 74.1804 3.81819 74.1577 3.92335C74.1577 3.92335 74.2256 4.41161 75.0627 4.80222C75.0778 4.80222 75.0854 4.80974 75.0929 4.81725C75.0929 4.81725 75.1005 4.81725 75.108 4.81725C75.3041 4.90739 75.5152 4.97499 75.7189 5.06513C75.9753 5.18532 76.2091 5.34307 76.375 5.56842C76.5862 5.86138 76.6691 6.2595 76.6012 6.61255C76.556 6.85293 76.4429 7.07077 76.2845 7.25856C76.0733 7.50645 75.7867 7.68673 75.4775 7.76936C75.1532 7.8595 74.8063 7.84448 74.467 7.84448C74.1804 7.84448 73.9013 7.86701 73.5167 7.87452C74.0823 10.6989 74.286 10.7064 74.4368 10.7064C74.6555 10.7064 74.7912 10.7215 74.829 10.5712C74.8742 10.3985 74.7988 10.0154 74.7385 9.78251C74.663 9.48955 74.6253 9.43696 74.6706 9.34682C74.7158 9.2642 74.829 9.14401 74.9421 9.0764C75.0326 9.01631 75.1231 8.98626 75.2437 8.96373C75.3795 8.94119 75.5605 8.92617 75.9451 9.0088C76.0432 9.03133 76.1487 9.06138 76.2694 9.09894C76.3147 9.11396 76.3599 9.12898 76.4052 9.14401C76.6993 9.24166 76.9783 9.3318 77.016 9.48203C77.0311 9.53462 77.016 9.60222 76.9934 9.66232C76.9029 10.0079 76.9255 10.3384 76.9331 10.6689C76.9331 10.8942 76.9331 11.1196 76.9406 11.3449C76.4806 11.39 76.3222 11.4126 76.1638 11.4426C75.8772 11.4952 75.5907 11.5703 75.372 11.7506C75.1759 11.9158 75.0401 12.1712 75.0175 12.4417C75.0024 12.6445 75.0477 12.8548 75.1759 12.9975C75.2815 13.1252 75.4549 13.2003 75.6133 13.2304C75.5982 13.4482 75.5002 13.6135 75.3569 13.7337C75.2588 13.8163 75.1457 13.8764 74.9798 13.929C74.9496 14.2295 74.746 14.5975 74.3086 14.898C74.2784 14.8755 74.2407 14.8529 74.2105 14.8304C74.3086 14.575 74.3387 14.3421 74.3689 14.1093C74.2332 14.1318 74.0899 14.1468 73.9466 14.1393C73.577 14.1243 73.2075 13.959 72.9285 13.7262C72.9813 13.283 73.034 12.8473 73.1019 12.359C73.1245 12.3365 73.1547 12.314 73.1849 12.3064C73.2754 12.2764 73.3583 12.4041 73.4564 12.4717C73.5997 12.5769 73.7656 12.5694 73.9315 12.5393C74.0522 12.5168 74.1653 12.4867 74.2633 12.4191C74.3538 12.3515 74.4217 12.2464 74.467 12.1337C74.5197 11.9834 74.5197 11.8257 74.482 11.6604C74.4519 11.5327 74.4066 11.4126 74.3086 11.3374C74.2105 11.2623 74.0597 11.2548 73.9315 11.2849C73.8259 11.3074 73.7354 11.36 73.6374 11.39C73.479 11.4501 73.3055 11.4726 73.1321 11.4802C73.0718 11.4802 73.019 11.4802 72.9586 11.4802C72.8908 11.4802 72.8229 11.4802 72.7475 11.4802C72.6796 11.4802 72.6042 11.4802 72.5363 11.4802C72.476 11.4802 72.4232 11.4802 72.3628 11.4802C72.1894 11.4726 72.0159 11.4501 71.8575 11.39C71.7595 11.3525 71.669 11.3074 71.5634 11.2849C71.4352 11.2548 71.2844 11.2698 71.1863 11.3374C71.0883 11.405 71.0431 11.5327 71.0129 11.6604C70.9752 11.8257 70.9752 11.9834 71.028 12.1337C71.0657 12.2464 71.1336 12.3515 71.2316 12.4191C71.3221 12.4867 71.4428 12.5168 71.5634 12.5393C71.7293 12.5694 71.8953 12.5769 72.0386 12.4717C72.1366 12.4041 72.2196 12.2764 72.3101 12.3064C72.3402 12.314 72.3704 12.3365 72.393 12.359C72.4609 12.8473 72.5137 13.2905 72.5665 13.7262C72.2874 13.959 71.9179 14.1243 71.5483 14.1393C71.4051 14.1393 71.2693 14.1243 71.126 14.1093C71.1562 14.3421 71.1863 14.575 71.2844 14.8304C71.2542 14.8529 71.2165 14.8755 71.1863 14.898C70.7414 14.605 70.5453 14.237 70.5151 13.929C70.3492 13.8764 70.2361 13.8163 70.1381 13.7337C69.9948 13.6135 69.8967 13.4482 69.8816 13.2304C70.0476 13.1928 70.2135 13.1177 70.3191 12.9975C70.4473 12.8548 70.4925 12.6445 70.4774 12.4417C70.4548 12.1712 70.3191 11.9158 70.123 11.7506C69.9043 11.5703 69.6101 11.4952 69.3311 11.4426C69.1727 11.4126 69.0068 11.39 68.5543 11.3449C68.5543 11.1196 68.5543 10.8942 68.5619 10.6689C68.5694 10.3384 68.592 10.0079 68.5015 9.66232C68.4864 9.60222 68.4638 9.53462 68.4789 9.48203C68.5166 9.3318 68.7881 9.24166 69.0822 9.14401C69.1275 9.12898 69.1727 9.11396 69.218 9.09894C69.3386 9.06138 69.4442 9.03133 69.5423 9.0088C69.9269 8.91865 70.1003 8.93368 70.2436 8.96373C70.3568 8.98626 70.4473 9.01631 70.5453 9.0764C70.6584 9.15152 70.7716 9.2642 70.8168 9.34682C70.8621 9.43696 70.8168 9.48955 70.7489 9.78251C70.6886 10.0154 70.6132 10.3985 70.6584 10.5712C70.6961 10.7215 70.8243 10.714 71.0506 10.7064C71.2014 10.7064 71.4051 10.7064 71.9707 7.87452C71.6992 7.87452 71.5106 7.85199 71.3221 7.83697C70.6358 7.76936 69.942 7.67922 69.3688 7.21349C69.0294 6.93556 68.7278 6.52241 68.773 6.13931C68.8032 5.82382 69.0671 5.52335 69.3462 5.29049C69.6101 5.07265 69.8816 4.90739 70.1908 4.80973C70.1908 4.80973 69.4593 4.28391 69.6328 3.52523C69.8288 2.63884 70.7942 2.20316 70.9978 2.12053C71.307 2.02288 71.6313 1.95527 71.9556 1.9102C72.2045 1.88016 72.4533 1.85762 72.7022 1.85762C72.212 1.96279 71.767 2.21819 71.3749 2.5487C71.1939 2.69894 71.0204 2.87171 70.9526 3.09706C70.8847 3.29236 70.8998 3.53274 71.0053 3.71302C71.0958 3.87077 71.2542 3.97593 71.4201 4.05856C71.6916 4.19377 71.9933 4.26138 72.2874 4.23133C72.4986 4.2088 72.7098 4.1487 72.8983 4.05105C72.8304 3.75058 72.838 3.41255 72.9511 3.12711C73.0642 2.83415 73.2905 2.58626 73.562 2.421C74.0974 2.08297 74.7837 2.06795 75.3946 2.13556C75.6057 2.15809 75.8094 2.18814 76.0281 2.18063C76.3675 2.15809 76.7294 2.03039 77.0462 1.89518C77.8381 1.52711 78.0794 0.851049 78.0794 0.851049C78.0115 0.881096 77.9436 0.903632 77.8682 0.926167C77.4761 1.05387 77.0462 1.10645 76.6389 1.04635C76.3448 1.00128 76.0582 0.903632 75.7792 0.798467C75.2815 0.610674 74.7912 0.415369 74.3161 0.280157C73.7807 0.129923 73.2603 0.062317 72.7022 0.03227C72.0763 0.00222306 71.4126 0.0247583 70.8621 0.129923C70.4925 0.20504 70.1758 0.317716 69.8288 0.558092C69.7836 0.588139 69.7383 0.625697 69.6931 0.663256C69.6931 0.663256 68.8861 1.17405 68.5392 2.01537C68.3884 2.38344 68.3205 2.68391 68.2979 2.92429C67.8831 2.68391 67.4231 2.50363 66.9479 2.44354C66.3899 2.37593 65.7941 2.4811 65.3717 2.85668C65.0927 3.10457 64.8815 3.47265 64.7458 3.83321C64.6176 4.17124 64.5422 4.49424 64.5346 4.84729C64.5271 5.298 64.6176 5.77124 64.776 6.19189C64.9268 6.59002 65.1304 6.93556 65.4849 7.42382C65.5829 7.55903 65.696 7.70927 65.7488 7.84448C65.8016 7.9872 65.7865 8.1149 65.7564 8.22758C65.334 8.08485 65.0776 7.99471 64.9042 7.91208C64.8665 7.88955 64.8363 7.87452 64.7986 7.85199C64.3989 7.57405 64.0821 7.04823 64.0821 7.04823C63.6975 7.70927 63.4109 8.52804 63.2299 9.26419C63.0489 10.0304 62.9509 10.8417 62.9735 11.6229C62.981 11.9684 63.0188 12.3215 63.0715 12.667C63.69 11.067 64.8665 9.76748 66.5105 9.61725C66.7594 9.59471 67.0158 9.60222 67.2722 9.62476C66.6463 10.0905 66.3522 10.759 66.3144 11.4276C66.2918 11.9384 66.42 12.4567 66.6086 12.99C66.7971 13.5158 67.046 14.0567 67.3703 14.5449C67.4985 14.7403 67.6418 14.928 67.7926 15.1083C67.7851 15.1083 66.7669 14.898 66.0279 14.1393C65.2812 13.3731 65.1078 12.1787 65.1078 12.1787C64.8212 12.4041 64.5648 12.682 64.3838 13.005C64.1274 13.4482 63.9916 13.9741 63.9765 14.4698C63.9615 15.0407 64.0972 15.5665 64.3084 16.0773C64.4743 16.483 64.6855 16.8811 64.8589 17.3018C64.9871 17.6097 65.0852 17.9327 65.1757 18.2633C65.1757 18.2708 65.1757 18.2783 65.1757 18.2858C65.1757 18.2858 65.1757 18.2858 65.1832 18.2708C65.2209 18.2182 65.3717 17.9778 65.5301 17.4445C65.7187 16.821 65.5905 15.837 65.5905 15.837C66.1938 16.5806 66.1485 17.4069 66.2994 18.098C66.3371 18.2482 66.6463 19.2849 68.0566 19.8332C68.3884 19.9609 68.675 20.0661 68.9088 20.1562C69.0898 20.2238 69.2481 20.2764 69.3839 20.3215C69.2557 20.1111 69.0973 19.8708 68.8861 19.6003C68.7429 19.4126 68.6297 19.2323 68.5468 19.0445C67.9661 17.8426 68.4487 16.7985 68.4487 16.7985C68.8183 15.7618 69.7383 15.2586 69.7383 15.2586C69.497 15.7318 69.2632 16.498 69.218 17.1891C69.218 17.1891 69.218 17.2041 69.218 17.2116C69.218 17.2266 69.218 17.2492 69.218 17.2642C69.218 17.452 69.2331 17.9553 69.4744 18.5036C69.6177 18.8341 69.8364 19.1872 70.1758 19.4952C70.5453 19.8257 70.7791 20.1787 70.945 20.5168C71.2467 21.1553 71.2542 21.7262 71.2542 21.9365C71.2391 22.605 71.1562 23.236 70.8922 23.7994C70.6433 24.3327 70.2286 24.8135 69.761 25.1891C69.8892 24.8811 69.9721 24.5431 70.0174 24.205L70.04 23.9797C70.0551 23.4464 69.9269 22.1919 68.494 21.1403C68.4336 21.0952 68.3658 21.0501 68.2979 21.005C67.9661 20.7872 67.5739 20.5694 67.1063 20.3816C67.0007 20.3365 66.9027 20.2989 66.8047 20.2539C65.6282 19.7431 64.7382 19.1647 64.067 18.6013C63.1017 17.7975 62.5889 17.0388 62.3626 16.6257C62.3174 16.5431 62.2797 16.468 62.242 16.3853C62.2269 16.3628 62.2193 16.3327 62.2043 16.3102C62.0233 15.9271 61.8724 15.529 61.7518 15.1158C61.5331 14.3647 61.4199 13.5834 61.4199 12.7797C61.4199 11.4201 61.7442 10.113 62.3853 8.89612C62.5436 8.58063 62.6266 8.23509 62.6266 7.87452C62.6266 6.62758 61.6085 5.621 60.3641 5.621C60.1906 5.621 59.6778 5.71866 59.625 5.72617C51.8496 7.33368 47.6112 12.1412 43.8781 16.3853C40.5673 20.1487 37.7166 23.3863 33.2067 23.2435H32.8975L32.9729 23.3787C32.9804 23.3787 32.9955 23.3787 33.003 23.3863C33.2142 23.6492 33.7949 24.16 35.0619 24.16C35.9066 24.16 38.7121 24.0022 42.6563 19.8708C43.946 18.5187 44.5342 17.8426 44.5342 17.8426C44.6624 17.6999 44.7831 17.5572 44.9113 17.4069C45.0395 17.2642 45.1677 17.114 45.2959 16.9712C45.7559 16.468 46.2311 15.9872 46.7137 15.529C49.836 12.5543 53.2825 10.6163 55.7486 9.82006C55.9824 9.74495 56.2087 9.67734 56.4274 9.62476C56.6084 9.57969 56.7743 9.54213 56.9402 9.51208C57.9131 9.32429 58.6144 9.39941 58.9236 9.72992C58.9463 9.75246 58.9764 9.78251 58.9915 9.81255C59.0141 9.85011 59.0368 9.88767 59.0519 9.93274C59.1122 10.083 59.1348 10.2482 59.1348 10.4435C59.1424 10.8341 59.3007 14.7327 61.2465 17.9027C61.714 18.6614 62.2646 19.3149 62.8378 19.8708C63.2224 20.2388 63.6145 20.5694 63.9992 20.8548C64.2179 21.0126 64.429 21.1628 64.6327 21.298C64.7835 21.3881 64.9268 21.4708 65.0701 21.5534C65.5905 21.8539 66.0731 22.1018 66.4502 22.282C66.503 22.3046 66.5558 22.3346 66.601 22.3572C66.6161 22.3647 66.6387 22.3722 66.6538 22.3797C66.6538 22.3797 66.6689 22.3797 66.6764 22.3872C66.782 22.4398 66.8876 22.4849 66.9253 22.5074C66.963 22.5224 67.0007 22.5449 67.0384 22.56C67.0762 22.575 67.1139 22.59 67.144 22.605C67.1516 22.605 67.1591 22.605 67.1667 22.6126C67.1817 22.4999 67.1667 22.3346 67.0988 22.1318C67.0762 22.0567 67.0384 21.9816 67.0007 21.8989C66.9781 21.8464 66.9479 21.8013 66.9178 21.7562C67.4231 21.959 67.8906 22.282 68.1999 22.7252C68.4864 23.1534 68.6297 23.6942 68.5769 24.19C68.5317 24.5957 68.3658 24.9788 68.2526 25.3844C68.049 26.1205 68.049 26.9318 68.3281 27.6154C68.5619 28.1863 68.9993 28.6595 69.4744 29.0802C70.0249 29.5609 70.6283 29.959 71.3146 30.1694C72.5212 30.5374 73.9692 30.3196 75.0477 29.621C75.8094 29.1327 76.3901 28.4116 76.7973 27.6304C77.3554 27.5478 77.9059 27.405 78.4339 27.1872C78.8864 26.9994 79.3162 26.7665 79.7235 26.4886L79.9648 26.3459C81.9407 26.8041 83.532 26.6839 84.7915 26.2557C85.2138 26.113 85.5984 25.9403 85.9453 25.7374C88.2983 24.3928 89.0826 22.0266 88.879 21.9365L87.4537 22.0717L87.4009 22.0642ZM76.3297 4.21631L76.2769 4.18626C76.473 3.8933 76.7219 3.6379 77.016 3.42758C77.378 3.16466 77.8004 2.96185 78.2604 2.96936C78.6827 2.96936 79.1428 3.14964 79.369 3.47265C79.5802 3.77312 79.6028 4.20128 79.5349 4.59189C79.4595 5.05011 79.2634 5.46326 78.9769 5.80128C78.9165 5.74119 78.8713 5.65856 78.8637 5.57593C78.8637 5.48579 78.9014 5.40316 78.9316 5.31302C78.9995 5.11772 78.9919 4.9149 78.9542 4.70457C78.9014 4.41912 78.7883 4.11114 78.5545 3.96842C78.3735 3.85574 78.1247 3.84072 77.9135 3.90833C77.7325 3.96091 77.5817 4.0811 77.4459 4.2088C77.4082 4.24636 77.378 4.28391 77.3479 4.32147C77.2347 4.50175 77.2498 4.67452 77.2498 4.89236C77.2498 4.99002 77.2951 5.15527 77.2875 5.24542C76.9331 4.58438 76.4655 4.29143 76.3222 4.2088L76.3297 4.21631ZM71.4277 16.0924C71.4277 16.0924 71.4805 16.0473 71.5106 16.0323C71.5106 15.867 71.5106 15.6942 71.5333 15.529C71.5483 15.4163 71.5634 15.2961 71.6011 15.1834H71.7218C71.752 15.3036 71.7897 15.4238 71.8425 15.544C71.8953 15.6717 71.9631 15.7994 72.0386 15.9121C72.0612 15.9121 72.0838 15.9121 72.0989 15.9121C72.3176 15.8895 72.5212 15.8595 72.7324 15.8595C72.9435 15.8595 73.1472 15.8971 73.3659 15.9121C73.3885 15.9121 73.4111 15.9121 73.4262 15.9121C73.5016 15.7919 73.5695 15.6717 73.6223 15.544C73.6751 15.4313 73.7128 15.3111 73.743 15.1834H73.8636C73.9013 15.2961 73.9164 15.4088 73.9315 15.529C73.9466 15.6942 73.9617 15.867 73.9541 16.0323C73.9843 16.0473 74.0069 16.0698 74.0371 16.0924C74.105 16.1525 74.1502 16.2351 74.1653 16.3252C74.1804 16.4529 74.105 16.5881 74.0069 16.6783C73.9315 16.7459 73.8335 16.791 73.743 16.8285C73.5921 16.8811 73.4413 16.9187 73.2905 16.9787C73.1849 17.0163 73.0868 17.0689 72.9963 17.1365C72.8908 17.2191 72.8003 17.3318 72.7399 17.452C72.6721 17.3318 72.5891 17.2191 72.4835 17.1365C72.393 17.0689 72.295 17.0163 72.1894 16.9787C72.0385 16.9187 71.8877 16.8886 71.7369 16.8285C71.6388 16.791 71.5483 16.7534 71.4729 16.6783C71.3749 16.5881 71.2995 16.4529 71.3146 16.3252C71.3221 16.2351 71.3749 16.1525 71.4428 16.0924H71.4277ZM68.3054 4.86232C68.1169 5.12523 68.049 5.48579 68.0716 5.8088C67.9585 5.53837 67.7851 5.298 67.5664 5.08016C67.3099 4.82476 66.9856 4.59941 66.6312 4.58438C66.4502 4.58438 66.2541 4.62194 66.1108 4.71959C65.8318 4.89236 65.7111 5.21537 65.6659 5.61349C65.6508 5.76373 65.6357 5.92147 65.4849 5.95152C65.4095 5.7487 65.3567 5.53837 65.334 5.30551C65.2888 4.85481 65.334 4.32147 65.5603 3.92335C65.7337 3.62288 66.0128 3.39753 66.322 3.32241C66.5633 3.26983 66.8273 3.30739 67.0762 3.39753C67.3929 3.50269 67.687 3.68297 67.951 3.8933C68.2074 4.09612 68.4261 4.32147 68.5543 4.61443C68.4638 4.68955 68.3884 4.77218 68.3205 4.86232H68.3054ZM84.4144 24.6557C84.4144 24.6557 84.3465 24.6708 84.3163 24.6708C83.9543 24.7309 83.6074 24.7534 83.351 24.7534C82.3932 24.7384 81.179 24.4529 81.179 24.4529C81.179 24.4529 81.624 24.2802 82.265 23.8971C82.7552 23.6191 83.2982 23.2661 83.6451 22.9205C83.992 22.6351 84.354 22.3046 84.7085 21.9215C86.0811 20.4417 86.4506 19.5102 86.4506 19.5102C86.4506 19.5102 86.4355 20.9299 85.9981 21.8088C85.3495 23.1158 85.2138 23.191 85.2138 23.191H86.8126C86.8126 23.191 86.0434 24.3703 84.4144 24.6482V24.6557Z" fill="#050505"/>
<path d="M112.281 23.251C107.779 23.4012 104.92 20.1561 101.609 16.3927C97.8688 12.1486 93.638 7.33358 85.855 5.73358C85.8022 5.72607 85.2894 5.62842 85.1159 5.62842C83.864 5.62842 82.8534 6.6425 82.8534 7.88194C82.8534 8.2425 82.9364 8.58053 83.1023 8.90354C83.7433 10.1129 84.0676 11.42 84.0676 12.7796C84.0676 13.373 83.9998 13.9589 83.8791 14.5298C83.8791 14.5599 83.8716 14.5899 83.864 14.62V14.635C83.864 14.665 83.8489 14.6876 83.8414 14.7176C83.8037 14.8904 83.7584 15.0481 83.7132 15.2059C83.5246 15.8519 83.2984 16.3552 83.0721 16.7308C82.6196 17.4819 82.2048 17.7448 82.2048 17.7448V17.7223L82.1747 17.3542L82.1596 17.1364C82.137 16.911 82.1068 16.7007 82.0691 16.4904C82.0163 16.1899 81.956 15.9045 81.8881 15.6416C81.7901 15.251 81.6769 14.8979 81.5563 14.5899C81.4054 14.1993 81.2546 13.8763 81.1113 13.6209C81.2018 13.6209 81.3451 13.6209 81.5487 13.6885C81.6091 13.7035 81.6769 13.7261 81.7448 13.7561C82.0012 13.8613 82.2727 14.0115 82.4839 14.1317C82.4839 14.1317 82.1822 12.6819 80.9756 12.1711C80.2139 11.8556 79.4521 12.2988 79.4521 12.2988C79.4521 12.2988 79.8142 13.0876 80.146 14.2143C80.1837 14.3495 80.2214 14.4848 80.2591 14.62C80.4476 15.3035 80.606 16.0848 80.6814 16.8885C80.8398 18.6763 80.4854 20.6744 80.3119 21.5458C80.3119 21.5458 80.327 21.5458 80.3345 21.5383C80.4703 21.4932 80.5985 21.4331 80.7342 21.373C80.8323 21.3054 80.9379 21.2378 81.0434 21.1702C81.3451 20.9674 81.6619 20.7345 81.9711 20.4791C82.7931 19.8031 83.6227 18.9467 84.2788 17.8801C85.9229 15.1909 86.2924 11.9833 86.3678 10.8341C86.3377 10.4284 86.3226 10.1279 86.4432 9.87255C86.4583 9.8425 86.4734 9.81246 86.4885 9.78241C86.4885 9.78241 86.5036 9.76738 86.5036 9.75987C86.5262 9.72983 86.5488 9.70729 86.5715 9.67724C86.8882 9.35424 87.6047 9.29415 88.5775 9.48194C88.751 9.5195 88.932 9.55706 89.1205 9.60964C89.3392 9.66973 89.5655 9.72983 89.7993 9.81246C92.3106 10.6387 95.8175 12.6444 98.9624 15.6941C99.3772 16.0923 99.7844 16.5129 100.177 16.9486C100.177 16.9486 100.116 16.8735 100.018 16.7383C100.207 16.9486 100.395 17.1664 100.576 17.3768C100.704 17.527 100.833 17.6697 100.953 17.8125C100.953 17.8125 101.534 18.4885 102.831 19.8406C106.775 23.9721 109.581 24.1298 110.426 24.1298C111.693 24.1298 112.273 23.619 112.485 23.3561C112.492 23.3561 112.507 23.3561 112.515 23.3486L112.59 23.2059H112.281V23.251Z" fill="#050505"/>
<path d="M66.9557 23.6793C66.8953 23.6568 66.8275 23.6343 66.7671 23.6117C66.737 23.5967 66.6993 23.5892 66.6691 23.5742C66.6389 23.5591 66.6012 23.5516 66.5711 23.5366C66.5032 23.5141 66.4429 23.484 66.375 23.4615C66.1563 23.3713 65.93 23.2812 65.6962 23.1685C65.4775 23.0709 65.2513 22.9582 65.0175 22.838C64.7535 22.7028 64.482 22.5526 64.2105 22.3948C64.0069 22.2746 63.7957 22.1469 63.5846 22.0042H63.5619C61.2467 20.5169 59.6252 18.2483 58.9465 15.6643C58.9238 15.6868 58.8937 15.7094 58.8711 15.7394C58.8484 15.762 58.8258 15.7845 58.8032 15.807C58.3658 16.2652 57.6267 17.2944 57.4381 19.0746C57.3175 20.2239 58.049 22.0643 58.049 22.0643L56.6236 21.9291C56.42 22.0192 57.2043 24.3854 59.5573 25.73C59.9043 25.9329 60.2889 26.1056 60.7112 26.2483C62.0159 26.6915 63.6675 26.8192 65.7264 26.3009C65.7264 26.3009 65.7038 26.3159 65.6811 26.3385C65.7038 26.3385 65.7264 26.3235 65.749 26.316C66.111 26.6239 66.5183 26.9094 66.9481 27.1648V26.2183C66.9481 25.6174 67.2046 24.7836 67.28 24.4981C67.4534 23.8596 66.9481 23.6793 66.9481 23.6793H66.9557ZM64.1879 24.4831C63.8862 24.5507 62.9134 24.7535 62.114 24.761C61.8575 24.761 61.5106 24.746 61.1486 24.6784C61.1185 24.6784 61.0808 24.6634 61.0506 24.6634C59.4216 24.3854 58.6523 23.2061 58.6523 23.2061H60.2512C60.2512 23.2061 60.123 23.131 59.4668 21.8239C59.0294 20.9451 59.0143 19.5253 59.0143 19.5253C59.0143 19.5253 59.3839 20.4493 60.7565 21.9366C62.1592 23.454 63.6902 24.2052 64.1427 24.408C64.2256 24.4455 64.2784 24.4681 64.2784 24.4681C64.2784 24.4681 64.2407 24.4756 64.1804 24.4906L64.1879 24.4831Z" fill="#050505"/>
<path d="M53.7802 15.1233C53.7802 15.1233 51.8722 15.1759 49.9114 17.9702C48.0787 20.5768 47.0757 22.8378 45.9218 24.3627C44.768 25.8801 43.6367 26.4209 43.6367 26.4209C43.6367 26.4209 45.2959 26.5937 46.8117 26.0153C46.955 25.9627 47.0908 25.8951 47.2341 25.8275C47.3925 25.7449 47.5508 25.6547 47.7017 25.5496C47.7469 25.5195 47.7922 25.4895 47.8374 25.4594C47.9128 25.4069 47.9882 25.3393 48.0561 25.2792C48.1315 25.2116 48.207 25.1515 48.2748 25.0763C48.3729 24.9787 48.4634 24.8735 48.5463 24.7608C49.9868 22.8303 49.7304 21.9515 49.7304 21.9515C49.7304 21.9515 50.0094 22.1618 50.2281 22.5148C50.4996 22.9505 50.5222 23.1909 50.5222 23.1909C50.5222 23.1909 51.3443 22.2895 51.4423 19.9233C51.5781 16.6256 53.7878 15.1233 53.7878 15.1233H53.7802Z" fill="#050505"/>
<path d="M55.9216 15.176C53.2368 16.483 53.2745 18.684 53.2745 18.684C53.1388 19.5478 53.1463 20.4342 52.8748 22.1093C52.7466 22.8905 52.641 23.4389 52.5581 23.807C52.4676 24.2201 52.4072 24.3929 52.4072 24.3929C52.4072 24.3929 52.4223 24.3929 52.4525 24.3778C52.5053 24.3553 52.6033 24.3178 52.724 24.2577C52.7466 24.2426 52.7768 24.2351 52.7994 24.2201C52.8597 24.1901 52.9201 24.16 52.9879 24.1224C53.0483 24.0849 53.1086 24.0548 53.1765 24.0098C53.4932 23.807 53.8552 23.514 54.1644 23.1084C54.9412 22.1018 55.0015 21.298 55.0015 21.298C55.0015 21.298 55.1976 21.2379 55.5521 21.298C55.8311 21.3431 56.1102 21.5309 56.1102 21.5309C56.1102 21.5309 56.1328 20.5994 55.4842 19.1422C54.4661 16.8436 55.9216 15.1685 55.9216 15.1685V15.176Z" fill="#050505"/>
<path d="M46.759 19.7955C47.219 18.9918 48.1391 17.7749 48.7273 17.0237C49.0441 16.6181 49.2628 16.3477 49.2628 16.3477C49.2628 16.3477 46.94 17.4369 44.8283 19.7805C44.4512 20.2012 44.0817 20.5843 43.7197 20.9298C43.7197 20.9298 40.6276 24.4303 36.54 25.219C36.9247 25.3768 37.4073 25.5495 37.9503 25.6772C39.3682 26.0153 41.1932 26.0979 42.7845 25.0312C44.6925 23.7542 45.1978 22.5373 46.7514 19.7955H46.759Z" fill="#050505"/>
<path d="M99.5351 24.3627C98.3813 22.8454 97.3782 20.5843 95.5456 17.9702C93.5848 15.1759 91.6768 15.1233 91.6768 15.1233C91.6768 15.1233 93.8865 16.6256 94.0222 19.9233C94.1202 22.2895 94.9423 23.1909 94.9423 23.1909C94.9423 23.1909 94.9649 22.9505 95.2364 22.5148C95.4551 22.1618 95.7342 21.9515 95.7342 21.9515C95.7342 21.9515 95.4777 22.8303 96.9182 24.7608C97.0012 24.8735 97.0916 24.9787 97.1897 25.0763C97.2576 25.144 97.333 25.2116 97.4084 25.2792C97.4838 25.3393 97.5517 25.4069 97.6271 25.4594C97.6724 25.4895 97.7176 25.5195 97.7629 25.5496C97.9137 25.6547 98.0721 25.7449 98.2304 25.8275C98.3662 25.8951 98.5095 25.9552 98.6528 26.0153C100.169 26.5937 101.828 26.4209 101.828 26.4209C101.828 26.4209 100.697 25.8801 99.5427 24.3627H99.5351Z" fill="#050505"/>
<path d="M92.5821 22.1167C92.3106 20.4416 92.3181 19.5552 92.1824 18.6913C92.1824 18.6913 92.2201 16.4904 89.5353 15.1833C89.5353 15.1833 90.9908 16.851 89.9727 19.1571C89.3316 20.6143 89.3467 21.5458 89.3467 21.5458C89.3467 21.5458 89.6182 21.358 89.9048 21.3129C90.2592 21.2528 90.4553 21.3129 90.4553 21.3129C90.4553 21.3129 90.5157 22.1167 91.2925 23.1233C91.6017 23.5289 91.9712 23.8218 92.2804 24.0247C92.3483 24.0622 92.4086 24.0998 92.4689 24.1373C92.5368 24.1749 92.5972 24.2049 92.6575 24.235C92.6877 24.25 92.7103 24.2575 92.7329 24.2726C92.8536 24.3326 92.9516 24.3702 93.0044 24.3927C93.0346 24.4003 93.0497 24.4078 93.0497 24.4078C93.0497 24.4078 92.9969 24.235 92.8988 23.8218C92.8159 23.4613 92.7103 22.9129 92.5821 22.1242V22.1167Z" fill="#050505"/>
<path d="M101.723 20.9298C101.368 20.5843 100.999 20.2012 100.614 19.7805C98.5025 17.4293 96.1797 16.3477 96.1797 16.3477C96.1797 16.3477 96.3984 16.6181 96.7151 17.0237C97.3034 17.7749 98.231 18.9918 98.6835 19.7955C100.237 22.5373 100.742 23.7467 102.65 25.0312C104.242 26.1054 106.067 26.0228 107.485 25.6772C108.028 25.5495 108.51 25.3768 108.895 25.219C104.807 24.4303 101.715 20.9298 101.715 20.9298H101.723Z" fill="#050505"/>
<path d="M25.4316 62.6952C25.2129 62.5524 24.6925 62.8229 24.0213 62.2595C23.6442 61.944 23.2672 61.3355 23.0258 60.9074C22.9881 60.8322 22.9429 60.7646 22.9052 60.6895C20.0092 54.8754 17.1358 49.0538 14.2398 43.2322C14.172 43.0895 14.1041 42.9543 14.0287 42.8116C13.9683 42.6839 13.8477 42.5712 13.7195 42.466C13.6667 42.3834 13.5837 42.3083 13.4555 42.2557C12.7089 41.9552 12.2865 42.5637 12.1583 42.7966L12.1357 42.8416C12.1206 42.8717 12.1131 42.8867 12.1131 42.8867L3.62874 60.4416C3.62874 60.4416 2.99525 61.7412 2.38437 62.252C1.71317 62.8153 1.18525 62.5449 0.974089 62.6876C0.559299 62.9581 0.627174 63.6867 0.627174 63.6867H7.98781C7.98781 63.6867 8.05569 62.6876 7.63335 62.6876C7.21102 62.6876 6.04207 62.7778 5.72532 62.1468C5.4689 61.6285 5.6499 61.0351 5.81582 60.652L7.68614 56.7759H16.4646C17.0151 58.098 17.5808 59.3975 18.0559 60.7271C18.1011 60.8473 18.1238 60.9599 18.1539 61.0726C18.2218 61.4332 18.2369 61.8313 18.0785 62.1468C17.7618 62.7778 16.5928 62.6876 16.1705 62.6876C15.7482 62.6876 15.816 63.6867 15.816 63.6867H20.3108C21.1253 63.6792 21.9549 63.6792 22.777 63.6792L25.7785 63.6867V63.6792C25.7785 63.6341 25.8313 62.9581 25.4316 62.7027V62.6952ZM8.68918 54.7327L12.0075 47.867C13.2066 50.1956 14.3605 52.4567 15.5294 54.7327H8.68918Z" fill="#050505"/>
<path d="M102.597 56.28C102.183 56.2199 101.994 56.4528 101.994 56.4528C101.994 56.4528 99.626 60.1561 98.1403 60.8622C96.6546 61.5758 94.0603 61.6284 94.0603 61.6284H88.2457C93.0648 55.2434 97.8462 48.9185 102.711 42.481H100.184H84.0299C84.0299 42.481 84.0073 42.481 83.9922 42.481C83.4718 44.7119 82.9514 46.9504 82.4311 49.1965C82.4311 49.1965 82.4311 49.3617 82.6875 49.4143C83.1023 49.4969 83.2984 49.2866 83.2984 49.2866C83.2984 49.2866 85.9078 45.7561 87.4463 45.1476C88.9772 44.5392 91.8732 44.5392 91.8732 44.5392H96.2474C94.8974 46.372 93.555 48.1974 92.1975 50.0002C90.478 52.2913 88.7359 54.5673 87.0164 56.8509C85.3195 59.0969 83.5472 61.3054 81.79 63.6941H101.368C101.873 61.2678 102.371 58.8866 102.869 56.5054C102.869 56.5054 102.869 56.5054 102.861 56.5054V56.4828C102.861 56.4828 102.854 56.3176 102.605 56.2875L102.597 56.28Z" fill="#050505"/>
<path d="M144.619 42.436H136.18C136.18 42.436 136.127 43.3524 136.535 43.435C136.7 43.4651 136.836 43.4801 137.04 43.5102C138.035 43.6078 138.812 44.3364 139.001 45.298C139.084 45.9064 139.084 46.0942 139.084 46.0942V46.0792V55.8369C139.084 55.8369 139.076 57.6472 138.888 58.436C138.707 59.2097 138.088 59.9909 138.05 60.036C136.814 61.3205 134.875 62.0867 132.289 61.9815C129.362 61.8613 127.424 60.6069 126.738 58.2407C126.504 57.4294 126.361 56.5881 126.338 55.7618C126.308 54.0416 126.308 52.3214 126.338 50.5937C126.376 49.0238 126.459 47.4463 126.58 45.8764C126.632 44.4266 127.771 43.435 129.099 43.435C129.121 43.435 129.099 43.435 129.121 43.435C129.589 43.435 129.619 42.8041 129.619 42.5487C129.634 42.5487 129.634 42.5487 129.649 42.5487H129.619C129.619 42.4886 129.619 42.4285 129.619 42.4285H118.812C118.812 42.4285 118.729 43.435 119.309 43.435C119.332 43.435 119.309 43.435 119.332 43.435C120.674 43.435 121.821 44.4416 121.851 45.9139C121.957 47.7092 122.055 49.5045 122.077 51.2998C122.1 53.2604 121.957 55.221 121.994 57.1815C122.04 59.3749 122.839 61.313 125.109 62.635C126.866 63.6566 128.895 63.9421 130.976 64.0247C131.029 64.0247 131.067 64.0247 131.12 64.0247V64.0397H133.005V64.0022C137.937 63.882 141.105 61.4031 141.406 57.0839C141.61 54.2069 141.489 51.3224 141.535 48.4379C141.55 47.6491 141.587 46.8529 141.678 46.0641C141.693 45.944 141.723 45.7787 141.746 45.5834C141.784 45.3806 141.836 45.1928 141.897 45.005C142.176 44.1937 142.862 43.5928 143.752 43.5026C143.956 43.4726 144.091 43.4576 144.257 43.4275C144.672 43.3449 144.612 42.4285 144.612 42.4285L144.619 42.436Z" fill="#050505"/>
<path d="M62.3934 42.436H57.8986C57.8986 42.436 57.8458 43.3525 58.253 43.4351C58.4189 43.4651 58.5547 43.4802 58.7583 43.5102C59.7538 43.6079 60.5306 44.3365 60.7191 45.298C60.8247 45.6511 60.8473 46.4248 60.8473 46.4924V56.791C59.241 55.1083 57.6723 53.5008 56.1942 51.8482C53.5169 48.8736 50.9075 45.8539 48.2528 42.8642C48.0869 42.6764 47.7626 42.4661 47.5062 42.4661C46.7897 42.4511 46.0808 42.4661 45.3644 42.4586V42.4435H40.8771C40.8771 42.4435 40.8243 43.36 41.2315 43.4426C41.3975 43.4727 41.5332 43.4877 41.7368 43.5177C42.7323 43.6154 43.5091 44.344 43.6977 45.3055C43.8108 45.6736 43.8259 46.5299 43.8259 46.5299V59.6229C43.8259 59.6229 43.8108 60.4717 43.6977 60.8398C43.5091 61.8013 42.7323 62.5299 41.7368 62.6276C41.5332 62.6576 41.3975 62.6727 41.2315 62.7027C40.8168 62.7853 40.8771 63.7018 40.8771 63.7018H48.8411C48.8411 63.7018 48.8938 62.7853 48.4866 62.7027C48.3207 62.6727 48.1849 62.6576 47.9813 62.6276C46.9858 62.5299 46.209 61.8013 46.0205 60.8398C45.9451 60.5919 45.9149 60.1562 45.9074 59.8708V46.4999C48.6827 49.422 51.4882 52.314 54.2032 55.2736C56.6768 57.9628 59.0298 60.7271 61.4431 63.4539C61.594 63.6266 61.7373 63.8069 61.9786 63.8445C61.9786 63.8445 61.9937 63.8595 62.0012 63.867C62.3406 64.0323 62.9364 63.7919 62.9364 63.7919V46.5224C62.9364 46.5224 62.9515 45.6736 63.0646 45.298C63.2531 44.3365 64.0299 43.6079 65.0254 43.5102C65.229 43.4802 65.3648 43.4651 65.5307 43.4351C65.9455 43.3525 65.8852 42.436 65.8852 42.436H62.4085H62.3934Z" fill="#050505"/>
</g>
<defs>
<clipPath id="clip0_643_1467">
<rect width="144" height="64" fill="white" transform="translate(0.626953 0.0397949)"/>
</clipPath>
</defs>
</svg>
