<svg width="74" height="40" viewBox="0 0 74 40" fill="none" xmlns="http://www.w3.org/2000/svg">
<rect y="1" width="73.3335" height="38" rx="10" fill="url(#paint0_linear_674_1006)"/>
<g filter="url(#filter0_f_674_1006)">
<path d="M34.0859 31.9932H29.2627V17.5947H24.5029V22.4053H19.6797V17.585H24.5029V12.7754H29.2627V8.00684H34.0859V31.9932ZM14.8574 12.7646H19.6797V17.585H14.8574V31.9824H10.0352V8.00684H14.8574V12.7646ZM63.2988 22.4053H44.0703V27.2246H63.2988V31.9824H39.2383V17.585H58.4658V12.7646H39.2383V8.00684H63.2988V22.4053Z" fill="url(#paint1_linear_674_1006)" fill-opacity="0.67"/>
</g>
<path d="M34.0869 31.9932H29.2646V17.5947H24.5039V22.4053H19.6816V17.585H24.5039V12.7754H29.2646V8.00684H34.0869V31.9932ZM14.8594 12.7646H19.6816V17.585H14.8594V31.9824H10.0361V8.00684H14.8594V12.7646ZM63.2998 22.4053H44.0713V27.2246H63.2998V31.9824H39.2393V17.585H58.4668V12.7646H39.2393V8.00684H63.2998V22.4053Z" fill="white"/>
<defs>
<filter id="filter0_f_674_1006" x="2.63516" y="0.606836" width="68.0637" height="38.7863" filterUnits="userSpaceOnUse" color-interpolation-filters="sRGB">
<feFlood flood-opacity="0" result="BackgroundImageFix"/>
<feBlend mode="normal" in="SourceGraphic" in2="BackgroundImageFix" result="shape"/>
<feGaussianBlur stdDeviation="3.7" result="effect1_foregroundBlur_674_1006"/>
</filter>
<linearGradient id="paint0_linear_674_1006" x1="36.6667" y1="1" x2="71.8161" y2="44.7688" gradientUnits="userSpaceOnUse">
<stop/>
<stop offset="1" stop-color="#2F2F2F"/>
</linearGradient>
<linearGradient id="paint1_linear_674_1006" x1="7.86444" y1="35.2655" x2="62.9362" y2="48.1285" gradientUnits="userSpaceOnUse">
<stop stop-color="#44FF9A"/>
<stop offset="0.234375" stop-color="#44B0FF"/>
<stop offset="0.489583" stop-color="#8B44FF"/>
<stop offset="0.739583" stop-color="#FF6644"/>
<stop offset="1" stop-color="#EBFF70"/>
</linearGradient>
</defs>
</svg>
