<svg width="165" height="64" viewBox="0 0 165 64" fill="none" xmlns="http://www.w3.org/2000/svg">
<g clip-path="url(#clip0_643_1452)">
<path d="M31.6296 0.0215527C34.9741 0.0215527 38.3221 -0.0360045 41.6629 0.035942C46.8401 0.147459 52.0101 0.42805 57.1513 1.0288C59.6984 1.32738 62.2274 1.76266 64.7601 2.15836C66.0445 2.35981 67.1954 2.89941 68.1551 3.76277C69.8038 5.24127 71.4129 6.76653 73.0509 8.25942C73.2637 8.45368 73.5415 8.65873 73.8085 8.68751C75.3671 8.86737 76.9292 9.10839 78.495 9.11919C81.724 9.13717 84.953 9.01127 88.182 8.97169C89.2138 8.95731 90.1086 8.62635 90.8878 7.98603C91.8547 7.19102 92.8 6.36723 93.7524 5.55424C93.9617 5.37797 94.1709 5.2017 94.3622 5.00744C95.9821 3.37426 97.9411 2.5109 100.218 2.12958C104.518 1.41012 108.837 0.863327 113.188 0.676266C118.184 0.460426 123.185 0.330923 128.185 0.2266C131.689 0.154654 135.195 0.0899018 138.695 0.205016C143.464 0.366896 148.216 0.870521 152.942 1.51804C155.94 1.92813 158.927 2.40298 161.915 2.90661C163.423 3.16202 163.538 3.3167 163.784 4.82398C164.144 7.05792 164.094 9.29186 163.603 11.5078C163.506 11.9359 163.333 12.3568 163.138 12.7561C162.95 13.1446 162.615 13.3245 162.153 13.3245C158.476 13.3137 154.796 13.3173 151.12 13.3245C150.889 13.3245 150.716 13.3137 150.633 13.0331C149.663 9.76311 147.375 7.7486 144.341 6.414C142.364 5.54345 140.297 5.11896 138.165 4.87075C133.922 4.37431 129.675 3.9858 125.407 3.87069C118.975 3.69442 112.571 3.94983 106.264 5.342C103.237 6.0075 100.394 7.14066 97.9447 9.0976C96.6062 10.166 95.5275 11.4431 94.8781 13.0403C94.7482 13.3568 94.5281 13.3245 94.2864 13.3245C89.7297 13.3245 85.1695 13.3245 80.6128 13.3245C76.9798 13.3245 73.3431 13.3209 69.71 13.3317C69.3637 13.3317 69.1797 13.2525 69.0426 12.9036C68.0685 10.4862 66.3295 8.73787 64.1324 7.39607C62.0074 6.09743 59.6551 5.44991 57.2415 4.96068C53.5182 4.21244 49.7516 3.78435 45.9635 3.5937C43.7194 3.48218 41.4681 3.37786 39.2205 3.38865C34.3716 3.41743 29.5371 3.69802 24.7748 4.71606C22.3143 5.24127 19.9079 5.92116 17.7035 7.18023C15.3909 8.50045 13.7205 10.3782 12.7789 12.8748C12.6562 13.2021 12.5083 13.3352 12.1367 13.3352C8.83553 13.3173 5.53078 13.3209 2.22603 13.3352C1.91576 13.3352 1.71733 13.2345 1.53694 12.9935C0.764872 11.9647 0.375229 10.7847 0.187623 9.53288C-0.122648 7.4824 0.00723322 5.4643 0.562835 3.46419C0.714363 2.92459 1.01742 2.61163 1.53333 2.49291C2.82493 2.19434 4.1057 1.84899 5.41173 1.63315C9.59678 0.931676 13.8251 0.607917 18.0607 0.410064C22.5813 0.194224 31.6296 -0.0288099 31.6296 0.0215527Z" fill="#AD0F35"/>
<path d="M10.614 46.402C10.7943 46.402 10.9351 46.402 11.0758 46.402C12.3313 46.402 13.5868 46.4164 14.8387 46.3948C15.185 46.3876 15.3366 46.4883 15.4412 46.8301C16.069 48.9273 16.8446 50.9706 17.8837 52.9024C18.7279 54.4708 19.7165 55.9313 21.0838 57.1005C21.6899 57.6185 22.3538 58.0322 23.1258 58.2768C26.1708 59.2445 29.2807 59.892 32.4484 60.3021C35.5728 60.705 38.7079 60.8812 41.8539 60.7769C45.3066 60.6582 48.7052 60.1906 52.0496 59.2732C55.9063 58.2156 58.908 56.0392 61.2098 52.816C62.5772 50.9023 63.8074 48.9094 64.8284 46.7941C64.9764 46.4848 65.1531 46.384 65.4887 46.3912C66.4411 46.4128 67.3936 46.3984 68.3461 46.3984H68.8042C68.7718 46.5207 68.7646 46.5891 68.7357 46.6502C67.4441 49.618 66.0767 52.5462 64.262 55.2478C61.4912 59.3632 57.5912 61.741 52.7856 62.7662C50.2962 63.2986 47.778 63.572 45.2453 63.7411C41.4138 63.9965 37.5823 64.0397 33.7472 63.9426C31.081 63.8742 28.4257 63.6332 25.7956 63.1512C21.5925 62.3813 18.2192 60.3093 15.5855 56.953C13.9873 54.9169 12.9193 52.6254 11.9813 50.2547C11.5303 49.118 11.1407 47.9597 10.7258 46.8121C10.6825 46.6934 10.6573 46.5711 10.6104 46.3984L10.614 46.402Z" fill="#AD0F35"/>
<path d="M95.2175 46.402C96.4405 46.402 97.595 46.3912 98.7459 46.4164C98.8866 46.4164 99.0778 46.607 99.1536 46.7581C100.243 48.9201 101.455 51.0065 102.924 52.9383C104.078 54.4564 105.334 55.8845 106.903 56.9889C108.527 58.1328 110.374 58.7876 112.261 59.3379C115.252 60.2049 118.322 60.615 121.425 60.7373C128.135 61.0071 134.719 60.2553 141.127 58.1868C142.263 57.8199 143.111 57.0321 143.887 56.1759C145.644 54.2297 146.748 51.9095 147.675 49.4957C148.025 48.5855 148.303 47.6466 148.638 46.7293C148.689 46.5962 148.869 46.4164 148.992 46.4128C150.406 46.3912 151.817 46.402 153.231 46.4056C153.271 46.4056 153.314 46.4272 153.375 46.4451C153.361 46.5423 153.357 46.643 153.325 46.7329C152.408 49.4309 151.478 52.1289 150.02 54.5895C148.122 57.7983 145.665 60.4531 142.151 61.9604C140.066 62.8561 137.862 63.2734 135.621 63.5504C131.472 64.0648 127.305 64.0289 123.142 63.9353C119.567 63.8562 115.998 63.6511 112.47 63.0072C109.537 62.4712 106.741 61.5827 104.259 59.8632C102.087 58.3595 100.438 56.3809 99.0562 54.165C97.577 51.7908 96.4117 49.2546 95.3041 46.6934C95.2716 46.6178 95.2572 46.5351 95.2139 46.3948L95.2175 46.402Z" fill="#AD0F35"/>
<path d="M42.0346 35.5776C42.6299 34.8042 43.2288 34.0343 43.8205 33.2609C47.0819 29.0161 50.3434 24.7712 53.6048 20.5264C53.7167 20.3789 53.8321 20.2278 53.9692 20.1019C54.3949 19.7206 54.8892 19.627 55.4159 19.8393C55.9246 20.0443 56.2097 20.4436 56.2746 20.9904C56.2854 21.0768 56.2854 21.1631 56.2854 21.2494C56.2854 27.3865 56.2926 33.5271 56.271 39.6641C56.271 40.0203 56.1159 40.4304 55.9066 40.7253C55.5639 41.2002 55.0263 41.3189 54.4707 41.1282C53.9223 40.9376 53.5976 40.5347 53.5291 39.9519C53.5074 39.7685 53.5146 39.5778 53.5146 39.3907C53.5146 34.8761 53.5146 30.3615 53.5146 25.8504C53.5146 25.6957 53.5146 25.541 53.5146 25.2497C53.3342 25.4727 53.2296 25.5986 53.1322 25.7281C49.3404 30.6564 45.5522 35.5848 41.7604 40.5095C41.2842 41.1282 40.743 41.3333 40.1152 41.1354C39.5127 40.9448 39.1592 40.416 39.1592 39.6533C39.1592 33.5307 39.1592 27.4045 39.1592 21.2818C39.1592 20.3573 39.7292 19.7386 40.5446 19.7386C41.3708 19.7386 41.93 20.3537 41.93 21.2782C41.9336 25.8792 41.93 30.4802 41.93 35.0775C41.93 35.2322 41.93 35.3833 41.93 35.538C41.9661 35.5524 42.0021 35.5632 42.0346 35.5776Z" fill="black"/>
<path d="M64.4931 31.2428C63.8617 31.8543 63.252 32.4263 62.6748 33.0235C62.5665 33.135 62.5557 33.3688 62.5557 33.5451C62.5485 35.6135 62.5557 37.6856 62.5449 39.7541C62.5377 40.7613 61.6898 41.416 60.7735 41.1354C60.2467 40.9736 59.9256 40.6102 59.8174 40.067C59.7921 39.9411 59.7885 39.808 59.7885 39.6821C59.7885 33.5451 59.7813 27.408 59.7994 21.2674C59.7994 20.9401 59.9076 20.5767 60.0735 20.2961C60.3622 19.8105 60.9719 19.6306 61.5167 19.7781C62.0867 19.9292 62.48 20.3897 62.5341 20.9796C62.5485 21.1379 62.5449 21.2962 62.5449 21.4545C62.5449 23.8107 62.5449 26.1706 62.5449 28.5268V29.0916C62.7072 28.9621 62.8047 28.8937 62.884 28.811C65.6656 25.9943 68.4437 23.1776 71.2253 20.3609C71.3371 20.2494 71.449 20.1343 71.5752 20.0407C72.1777 19.5839 72.957 19.6414 73.4585 20.1738C73.96 20.7062 73.9708 21.5444 73.4477 22.0876C72.6612 22.9078 71.853 23.71 71.0557 24.5194C69.5801 26.0159 68.1045 27.5124 66.6325 29.0124C66.582 29.0628 66.5387 29.1204 66.4666 29.1995C66.5568 29.329 66.6434 29.4585 66.7336 29.5808C68.9704 32.6529 71.2145 35.7179 73.4333 38.7972C73.6389 39.085 73.7868 39.4663 73.8121 39.8152C73.859 40.4304 73.4152 40.9628 72.8344 41.1354C72.2463 41.3117 71.6799 41.1102 71.2866 40.5671C69.4719 38.0813 67.6608 35.5884 65.846 33.1026C65.3987 32.4875 64.9477 31.8723 64.4859 31.2392L64.4931 31.2428Z" fill="black"/>
<path d="M138.605 22.5158C138.605 22.7568 138.605 22.9403 138.605 23.1201C138.605 28.6097 138.605 34.0992 138.605 39.5923C138.605 40.0887 138.511 40.5312 138.111 40.8693C137.324 41.5348 136.119 41.1427 135.892 40.1391C135.848 39.9448 135.848 39.7398 135.848 39.5383C135.848 34.0632 135.848 28.5881 135.848 23.1094C135.848 22.9259 135.848 22.746 135.848 22.5122C135.621 22.5122 135.452 22.5122 135.282 22.5122C133.709 22.5122 132.14 22.5194 130.567 22.505C129.924 22.5014 129.434 22.1345 129.246 21.5733C129.062 21.0193 129.207 20.3934 129.683 20.0624C129.939 19.8826 130.285 19.7459 130.592 19.7459C135.019 19.7243 139.445 19.7279 143.872 19.7351C144.662 19.7351 145.258 20.3178 145.279 21.0769C145.305 21.8503 144.72 22.4906 143.916 22.5014C142.343 22.523 140.773 22.5086 139.2 22.5122C139.027 22.5122 138.857 22.5122 138.605 22.5122V22.5158Z" fill="black"/>
<path d="M48.2679 16.3966C48.4267 16.2167 48.589 16.0189 48.7694 15.839C49.2853 15.3138 50.0213 15.2778 50.5012 15.7455C50.9846 16.2167 50.9738 16.947 50.4579 17.4758C49.7363 18.2168 49.0039 18.9471 48.286 19.6881C47.8855 20.1018 47.4165 20.2637 46.8789 20.0479C46.345 19.832 46.161 19.386 46.1682 18.832C46.1754 18.3427 46.1754 17.8571 46.1682 17.3679C46.161 16.857 46.3269 16.4362 46.7959 16.1808C47.2505 15.9361 47.6835 16.0153 48.0875 16.3103C48.12 16.3354 48.1633 16.3462 48.2643 16.393L48.2679 16.3966Z" fill="black"/>
<path d="M127.641 25.5448C127.031 22.2532 124.192 19.7711 120.952 19.7423C118.141 19.7171 115.327 19.7279 112.517 19.7279C110.706 19.7279 109.118 20.3214 107.801 21.5661C105.626 23.6274 104.951 26.1635 105.828 28.973C106.679 31.7034 108.617 33.4049 111.496 33.8402C112.528 33.9949 113.595 33.9049 114.649 33.9229C114.833 33.9229 115.013 33.9229 115.237 33.9229V34.4517C115.237 36.2072 115.237 37.9591 115.237 39.7146C115.237 40.5708 115.847 41.2147 116.637 41.2039C117.42 41.1931 117.993 40.578 117.997 39.729C117.997 38.2037 117.997 36.6821 117.997 35.1568C117.997 34.7719 117.997 34.3834 117.997 33.9229C118.942 33.9229 119.819 33.9697 120.692 33.9085C121.464 33.8546 122.258 33.7862 122.987 33.5524C126.266 32.4984 128.279 28.9838 127.641 25.5412V25.5448ZM115.219 31.0918C115.143 31.1098 115.075 31.1422 115.01 31.1422C114.057 31.1422 113.105 31.171 112.156 31.1206C109.962 31.0019 108.151 28.955 108.238 26.7463C108.328 24.4044 110.179 22.5338 112.416 22.523C113.336 22.5194 114.256 22.523 115.219 22.523V31.0954V31.0918ZM124.985 27.0916C124.819 29.3579 123.044 31.1062 120.869 31.1422C119.934 31.1566 119 31.1422 118.019 31.1422V22.5985C118.058 22.5698 118.08 22.5374 118.105 22.5374C119.227 22.5482 120.364 22.4583 121.471 22.5985C123.575 22.8648 125.144 24.944 124.989 27.088L124.985 27.0916Z" fill="black"/>
<path d="M35.7171 39.1066C34.4363 35.7647 33.1519 32.4264 31.8676 29.0845C30.7997 26.3073 29.7281 23.5338 28.6674 20.7531C28.4618 20.2099 28.1118 19.8501 27.531 19.7494C26.8419 19.6307 26.2502 20.012 25.9652 20.7531C25.0055 23.246 24.0458 25.7425 23.0898 28.2391C21.6972 31.8616 20.3082 35.4841 18.9119 39.103C18.7135 39.6174 18.681 40.1139 18.9985 40.5851C19.2944 41.024 19.7201 41.2434 20.254 41.1931C20.8385 41.1355 21.2354 40.8153 21.4446 40.2649C22.2131 38.2684 22.9852 36.2683 23.75 34.2682C23.8366 34.0452 23.9268 33.9157 24.2046 33.9157C26.2791 33.9265 28.3572 33.9265 30.4353 33.9157C30.6806 33.9157 30.7961 34.002 30.8718 34.225C31.0342 34.6855 31.2218 35.1388 31.3949 35.592C31.9938 37.1497 32.5819 38.7073 33.188 40.2613C33.4586 40.9556 34.0972 41.3082 34.7682 41.1679C35.414 41.0348 35.8722 40.4736 35.8794 39.6786C35.8506 39.5671 35.8073 39.326 35.7207 39.103L35.7171 39.1066ZM24.9658 31.1098C25.7379 29.0953 26.5028 27.1095 27.264 25.1238C27.3001 25.1238 27.3326 25.1166 27.3686 25.1166C28.1299 27.0987 28.8875 29.0809 29.6668 31.1098H24.9658Z" fill="black"/>
<path d="M106.264 39.1317C105.005 35.8582 103.746 32.5882 102.487 29.3146C101.393 26.4728 100.3 23.6273 99.2071 20.7818C98.9329 20.0695 98.4855 19.7278 97.8361 19.735C97.2156 19.7422 96.7502 20.0947 96.494 20.7638C95.6786 22.8826 94.8669 25.0051 94.0515 27.1239C92.511 31.1349 90.9741 35.1459 89.4299 39.1569C89.2423 39.6462 89.2243 40.1138 89.5129 40.5599C89.8124 41.0203 90.2489 41.247 90.8009 41.1894C91.389 41.1283 91.7714 40.7973 91.9806 40.2505C92.7347 38.2936 93.4995 36.3402 94.2355 34.3725C94.3726 34.0092 94.5494 33.9084 94.9246 33.912C96.8728 33.93 98.8174 33.9336 100.766 33.912C101.166 33.9084 101.339 34.0271 101.476 34.4013C102.198 36.3402 102.948 38.2684 103.695 40.2002C103.995 40.9736 104.644 41.3369 105.358 41.1606C106.231 40.9448 106.628 40.0671 106.268 39.1317H106.264ZM95.491 31.1169C96.2775 29.0772 97.0388 27.0987 97.8505 24.9907C98.6587 27.0987 99.4199 29.088 100.199 31.1169H95.491Z" fill="black"/>
<path d="M89.6393 26.3756C89.4949 23.0553 86.8576 20.1343 83.5673 19.8213C81.9222 19.663 80.2554 19.7493 78.5994 19.7386C77.7082 19.735 77.1562 20.3033 77.1562 21.2063C77.1562 27.3721 77.1562 33.5379 77.1562 39.7037C77.1562 40.5815 77.7335 41.2038 78.5344 41.2038C79.3354 41.2038 79.909 40.5779 79.909 39.7001C79.909 38.0058 79.909 36.3078 79.909 34.6135V33.9264C80.8434 33.9264 81.7418 33.984 82.6257 33.9084C83.4771 33.8365 84.3646 33.7465 85.1584 33.4552C88.0374 32.3939 89.7763 29.5772 89.6393 26.3792V26.3756ZM82.6509 31.1421C81.7598 31.1421 80.8687 31.1421 79.9307 31.1421V22.5373C80.0714 22.5301 80.2085 22.5193 80.3455 22.5193C81.1104 22.5193 81.8753 22.5193 82.6365 22.5193C84.996 22.5193 86.8937 24.4403 86.8973 26.8253C86.8973 29.2103 85.0068 31.1349 82.6509 31.1457V31.1421Z" fill="black"/>
</g>
<defs>
<clipPath id="clip0_643_1452">
<rect width="164" height="64" fill="white" transform="translate(0.0214844)"/>
</clipPath>
</defs>
</svg>
