<svg width="145" height="38" viewBox="0 0 145 38" fill="none" xmlns="http://www.w3.org/2000/svg">
<g clip-path="url(#clip0_643_1442)">
<path d="M19.1854 36.543C16.0417 36.5596 12.9493 35.7455 10.2225 34.1834C7.49502 32.6213 5.22979 30.3667 3.65666 27.6481C2.08288 24.9295 1.25704 21.8435 1.26223 18.7033C1.26807 15.563 2.10431 12.48 3.68717 9.76676C5.27004 7.05348 7.54306 4.80659 10.2751 3.25379C13.0078 1.701 16.1027 0.897548 19.2464 0.924869C22.3894 0.952188 25.4701 1.80932 28.1748 3.40938C30.8803 5.00942 33.1137 7.2955 34.6485 10.0358C31.6633 11.6097 31.3984 11.7588 28.0515 13.3823C27.1464 11.8364 25.8518 10.5546 24.2956 9.66505C22.74 8.77548 20.9779 8.30922 19.1854 8.31285C16.4488 8.36157 13.8401 9.48174 11.9222 11.4323C10.0044 13.3828 8.9292 16.0076 8.9292 18.7418C8.9292 21.476 10.0044 24.1007 11.9222 26.0513C13.8401 28.0018 16.4488 29.122 19.1854 29.1707C21.0669 29.1869 22.9159 28.6861 24.5319 27.7231C26.1479 26.76 27.4672 25.3719 28.3463 23.7102C31.6931 25.4332 31.7931 25.6287 34.9439 27.0568C33.4415 29.9302 31.1763 32.3353 28.3969 34.0086C25.6175 35.6818 22.4303 36.5586 19.1854 36.543Z" fill="#E968BF"/>
<path d="M55.3796 36.8877C51.7809 36.8825 48.2639 35.8113 45.2748 33.8096C42.285 31.8079 39.9568 28.9655 38.5843 25.6421C37.2117 22.3186 36.8573 18.6632 37.5643 15.1382C38.2713 11.6131 40.0094 8.37679 42.5576 5.83837C45.1066 3.29994 48.3515 1.57344 51.8821 0.877212C55.4128 0.180978 59.0713 0.54627 62.3941 1.92691C65.717 3.30755 68.5555 5.64153 70.5506 8.63366C72.5458 11.6259 73.6079 15.1418 73.6027 18.7369C73.6047 21.1255 73.134 23.4909 72.2185 25.6973C71.3025 27.9037 69.9591 29.9076 68.2659 31.5942C66.5727 33.2807 64.5626 34.6165 62.3513 35.5249C60.1399 36.4333 57.7708 36.8964 55.3796 36.8877ZM44.6456 18.7369C44.6697 21.5737 45.8078 24.2877 47.8153 26.294C49.8234 28.3003 52.5398 29.4381 55.3796 29.4624C61.2404 29.4624 66.0169 24.5917 66.0169 18.7369C66.0169 12.8821 61.2404 7.96171 55.3796 7.96171C49.5189 7.96171 44.6456 12.8821 44.6456 18.7369Z" fill="#E968BF"/>
<path d="M98.0755 23.4584L107.927 36.4966H98.4702L89.6073 23.8527H85.8125V36.4966H78.0312V1.32153H93.8891C102.755 1.32153 106.162 6.88142 106.162 12.5871C106.162 17.3584 103.651 22.196 97.7898 23.4584H98.0755ZM85.8027 7.3254V17.9018H91.8128C95.5044 17.9018 98.5591 17.0635 98.5591 12.6004C98.5591 8.02453 95.5044 7.33863 91.8128 7.33863L85.8027 7.3254Z" fill="#E968BF"/>
<path d="M119.642 12.193V36.4968H112.895V1.22559H121.761L137.47 23.1636V1.22559H144.021V36.4968H137.47L119.642 12.193Z" fill="#E968BF"/>
</g>
<defs>
<clipPath id="clip0_643_1442">
<rect width="238.274" height="36.9735" fill="white" transform="translate(-94.2524 0.533081)"/>
</clipPath>
</defs>
</svg>
