<svg width="117" height="65" viewBox="0 0 117 65" fill="none" xmlns="http://www.w3.org/2000/svg">
<g clip-path="url(#clip0_643_1454)">
<path fill-rule="evenodd" clip-rule="evenodd" d="M19.9404 64.0398C19.9404 64.0398 10.5385 57.3253 9.29458 50.2552C8.05115 43.1851 10.2397 38.2002 11.5827 35.148C12.9258 32.0959 16.0098 26.7553 17.4525 22.1266C20.3611 12.7939 20.8256 9.43037 15.9603 0C24.2214 6.21461 30.1433 14.4253 28.695 25.4839C27.9486 31.1807 24.0686 37.6914 21.7309 43.0832C18.0946 51.4691 15.92 54.9567 19.9404 64.0398ZM47.7165 19.4223V34.6482C47.7165 46.1776 46.9851 47.1455 45.1775 47.1455C44.489 47.1455 43.6714 47.0574 43.2837 46.9254V51.3699C44.4028 51.6781 45.4784 51.7657 46.8556 51.7657C51.8045 51.7657 53.5259 47.0574 53.5259 36.4522V24.2631H59.8091V51.1941H65.7052V19.4228L47.7165 19.4223ZM70.2675 19.4223V51.1936H86.8797V46.3533H76.1637V36.4965H85.933V31.6562H76.1637V24.2636H86.8797V19.4234H70.2675V19.4223ZM96.4766 19.4223H90.5805V51.1936H96.4766V36.496H104.266V51.1936H110.162V19.4223H104.266V31.6557H96.4766V19.4223ZM126.3 24.2626H133.616V19.4223H113.088V24.2626H120.404V51.1936H126.3V24.2626ZM136.543 19.4223V51.1936H153.155V46.3533H142.439V36.4965H152.208V31.6562H142.439V24.2636H153.155V19.4234H136.543V19.4223ZM156.856 19.4223V51.1936H162.752V24.2626H170.541V51.1936H176.438V19.4223H156.856ZM183.625 19.4223V34.6482C183.625 46.1776 182.893 47.1455 181.086 47.1455C180.397 47.1455 179.579 47.0574 179.192 46.9254V51.3699C180.311 51.6781 181.387 51.7657 182.764 51.7657C187.713 51.7657 189.434 47.0574 189.434 36.4522V24.2631H195.717V51.1941H201.613V19.4228L183.625 19.4223ZM205.96 29.7193V41.2486C205.96 49.2577 210.178 51.942 216.074 51.942C222.056 51.942 226.058 49.3458 226.058 41.2486V29.7193C226.058 21.6226 222.056 18.8502 216.074 18.8502C210.178 18.8502 205.96 21.7108 205.96 29.7193ZM216.074 23.6905C218.613 23.6905 220.034 25.7145 220.034 29.1028V41.996C220.034 45.3405 218.614 47.1007 216.074 47.1007C213.276 47.1007 211.986 45.2967 211.986 41.996V29.0147C211.986 25.6264 213.276 23.6905 216.074 23.6905ZM230.147 19.4218V51.1931H236.043V24.262H246.457V19.4218H230.147ZM245.338 51.1931H251.664L253.515 42.9201H260.185L261.648 51.1931H268.018L261.132 19.4218H253.214L245.338 51.1931ZM254.247 38.2118L257.087 23.426L259.454 38.2118H254.247ZM275.765 28.5745C275.765 25.714 276.97 23.6899 279.294 23.6899C281.79 23.6899 282.565 26.0222 282.565 28.1344C282.565 30.9506 280.886 32.183 278.691 32.183H277.443V36.7155H278.691C281.145 36.7155 282.995 38.0798 282.995 41.8202C282.995 45.1204 281.962 47.1007 279.122 47.1007C276.152 47.1007 275.292 44.9447 275.292 42.7444H269.568C269.568 49.5649 274.388 51.9415 279.466 51.9415C285.62 51.9415 289.02 48.7732 289.02 42.3923C289.02 37.5959 286.912 34.9997 283.813 34.2075C286.653 33.4597 288.59 30.5991 288.59 27.2989C288.59 20.8742 283.469 18.8502 279.294 18.8502C273.442 18.8502 270.042 23.0307 270.042 28.5751L275.765 28.5745ZM21.7315 61.1143C21.7315 61.1143 19.4433 55.2137 22.4778 48.2961C25.5123 41.3785 26.955 39.3945 28.5468 36.9024C30.1387 34.4097 31.9298 30.7986 32.3277 28.6115C32.7257 26.4244 32.6261 22.7621 32.6261 22.7621C36.8673 30.8445 37.8749 42.6604 32.8748 50.6363C30.3875 54.6036 27.8005 57.8083 21.7315 61.1143ZM9.59344 57.2736C-2.63388 47.1234 -2.29734 38.2181 5.81256 26.4998C10.1132 20.2857 11.4335 19.5432 11.4335 12.0033C17.9676 20.1095 10.202 29.8987 7.55357 37.8941C6.50887 41.0476 5.66339 43.7435 6.60848 48.2196C7.55357 52.6957 9.59344 57.2736 9.59344 57.2736Z" fill="url(#paint0_linear_643_1454)"/>
</g>
<defs>
<linearGradient id="paint0_linear_643_1454" x1="0.0214844" y1="32.0199" x2="353.895" y2="32.0199" gradientUnits="userSpaceOnUse">
<stop stop-color="#194479"/>
<stop offset="1" stop-color="#025CB4"/>
</linearGradient>
<clipPath id="clip0_643_1454">
<rect width="289" height="64.0398" fill="white" transform="translate(0.0214844)"/>
</clipPath>
</defs>
</svg>
