<svg width="57" height="64" viewBox="0 0 57 64" fill="none" xmlns="http://www.w3.org/2000/svg">
<g clip-path="url(#clip0_643_1446)">
<path d="M56.0215 13.1544C55.8769 16.1611 55.7313 19.1668 55.5896 22.1734C55.5115 23.829 55.4555 25.4865 55.363 27.142C55.1759 30.4811 54.796 33.7971 54.1606 37.083C53.9687 38.0746 53.8733 39.0904 53.61 40.0607C53.1656 41.6998 52.1715 42.8683 50.4089 43.1273C49.2316 43.2993 48.2944 42.7523 47.5307 41.8892C46.8288 41.0967 46.5945 40.108 46.4422 39.102C45.9456 35.8237 46.0102 32.5291 46.1182 29.2276C46.2291 25.8489 46.312 22.4672 46.3052 19.0866C46.3033 17.8292 46.096 16.5544 45.8357 15.3193C45.5088 13.7681 44.7885 13.5149 43.4647 14.3896C41.732 15.5348 40.3561 17.0792 38.9493 18.5801C37.1781 20.4696 35.4512 22.4006 33.6684 24.2784C32.7119 25.2864 31.5365 25.9678 30.1645 26.278C28.4472 26.6665 26.8254 26.3253 25.248 25.645C23.5307 24.9047 22.0941 23.7497 20.6777 22.5552C18.3935 20.6281 16.1064 18.7029 13.7797 16.8299C13.2321 16.3892 12.5379 16.105 11.8735 15.8431C11.3268 15.6276 10.917 15.819 10.7184 16.3747C10.5217 16.9246 10.3559 17.5238 10.3578 18.1008C10.3674 20.2714 10.4417 22.4421 10.5121 24.6118C10.5574 25.9948 10.6654 27.3769 10.702 28.7599C10.783 31.8177 10.8592 34.8766 10.8929 37.9354C10.9083 39.2914 10.7097 40.6241 10.1148 41.8728C9.57003 43.0152 8.71382 43.7265 7.44589 43.9111C6.36984 44.0676 5.45867 43.6984 4.64777 43.0277C3.35574 41.9598 2.73865 40.4859 2.39539 38.9183C1.99043 37.0724 1.6732 35.2033 1.41769 33.3303C1.13518 31.262 0.941371 29.1803 0.757208 27.1004C0.613542 25.4826 0.542191 23.858 0.442878 22.2363C0.325245 20.3256 0.176758 18.4158 0.10155 16.5032C-0.0257251 13.2549 -0.138537 9.99989 0.927873 6.85406C1.81108 4.24945 3.55147 2.54945 6.25414 1.93381C7.60691 1.62551 8.89316 1.9831 10.1389 2.50016C12.4453 3.45695 14.4875 4.85639 16.386 6.44622C18.3819 8.11723 20.2573 9.93224 22.2541 11.6023C23.8046 12.8983 25.4254 14.118 27.08 15.2758C28.3277 16.1485 28.857 16.1321 29.9147 15.0651C31.1316 13.8377 32.2385 12.4905 33.3058 11.1268C35.3808 8.47578 37.4866 5.85764 40.008 3.61159C41.6472 2.15223 43.3586 0.780825 45.5599 0.275366C48.2732 -0.348001 50.7984 0.0289186 52.939 1.94444C54.3438 3.20181 55.066 4.86122 55.4555 6.6714C55.9145 8.80535 55.9868 10.9751 56.0215 13.1525V13.1544Z" fill="#050505"/>
<path d="M8.93952 53.6492C10.8457 51.4891 13.9727 51.0861 16.1913 52.7011C17.1854 53.425 17.7764 54.4378 17.8304 55.6372C17.9278 57.7914 17.9191 59.9524 17.8999 62.1096C17.8912 63.1292 17.2365 63.6366 16.225 63.7004C14.4548 63.8115 13.8473 63.0944 13.9235 61.4166C13.9939 59.8732 13.9514 58.3239 13.9302 56.7776C13.9254 56.3823 13.857 55.9755 13.7451 55.5956C13.5407 54.9007 13.0518 54.5828 12.3345 54.6031C11.6634 54.6224 11.2015 54.9848 11.0289 55.671C10.9557 55.9639 10.9142 56.2731 10.9123 56.5756C10.8997 58.2669 10.9026 59.9592 10.9017 61.6505C10.9017 63.1785 10.3858 63.6917 8.84888 63.6878C8.60976 63.6878 8.36099 63.6994 8.13248 63.6424C7.44211 63.4704 6.99568 62.8856 6.99182 62.1579C6.98315 60.4666 6.99857 58.7743 6.9764 57.083C6.96965 56.6056 6.91372 56.1166 6.79706 55.6546C6.59939 54.8737 6.13272 54.5731 5.3035 54.5982C4.6382 54.6185 4.21974 54.9761 4.06932 55.7203C3.99122 56.1108 3.96326 56.5167 3.96037 56.9158C3.9488 58.5752 3.93144 60.2346 3.96422 61.8941C3.98447 62.9214 3.35388 63.8067 2.15538 63.6917C1.94807 63.6714 1.73788 63.6917 1.52865 63.6878C0.671468 63.6752 0.0466639 63.1166 0.0399145 62.2526C0.0225588 60.0781 -0.00636728 57.9016 0.0717332 55.729C0.144049 53.7014 1.85647 52.0207 3.94783 51.8487C4.73752 51.7839 5.5542 51.78 6.33327 51.9038C7.43439 52.0787 8.31471 52.6963 8.93855 53.6472L8.93952 53.6492Z" fill="#050505"/>
<path d="M48.5557 52.8305C48.7052 52.7339 48.7958 52.6817 48.8797 52.6198C50.407 51.4852 52.6073 51.4485 54.1491 52.5599C55.3302 53.4114 55.8702 54.6465 55.9251 56.0459C56.0042 58.0571 55.9782 60.0722 55.9666 62.0854C55.9608 63.1011 55.3293 63.6385 54.3236 63.6984C52.5765 63.8018 51.9304 63.1939 51.9941 61.4011C52.0539 59.7301 51.9873 58.0533 51.9198 56.3803C51.8919 55.6758 51.6701 54.9925 50.8968 54.7287C50.1361 54.4687 49.4216 54.6021 48.8623 55.1926C48.6753 55.3907 48.5374 55.7222 48.5345 55.9957C48.5075 58.0088 48.521 60.0229 48.5191 62.0361C48.5181 63.0634 47.8943 63.6336 46.8722 63.6993C45.1 63.8134 44.5639 63.0402 44.5861 61.4417C44.643 57.3023 44.6044 53.162 44.6054 49.0217C44.6054 47.8581 45.1839 47.2792 46.3477 47.2724C48.1652 47.2618 48.5953 47.6832 48.5866 49.502C48.5818 50.4192 48.548 51.3354 48.5316 52.2526C48.5287 52.4227 48.5461 52.5928 48.5567 52.8296L48.5557 52.8305Z" fill="#050505"/>
<path d="M26.8582 56.5688C26.9566 55.1104 26.3183 54.3952 24.924 54.316C23.9791 54.2628 23.0747 54.4136 22.2146 54.8253C21.8077 55.0196 21.3922 55.1732 20.9216 55.007C20.4029 54.8234 20.0114 54.374 19.9767 53.8492C19.942 53.3099 20.2505 52.9832 20.6883 52.7484C22.1876 51.9433 23.8056 51.6959 25.4785 51.7906C26.1621 51.8293 26.8582 51.9037 27.5178 52.0757C29.5474 52.6073 30.6572 53.9101 30.8288 56.1126C30.9301 57.4048 30.878 58.7192 30.7816 60.0152C30.6398 61.924 29.5204 63.0895 27.727 63.6017C25.7668 64.1623 23.794 64.1372 21.8627 63.4809C20.6652 63.074 19.6691 62.355 19.349 61.0396C18.838 58.9386 19.916 57.2733 22.0912 56.7824C22.7102 56.6422 23.3582 56.5988 23.9946 56.5765C24.9375 56.5427 25.8834 56.5678 26.8563 56.5678L26.8582 56.5688ZM26.9469 58.5752C26.0445 58.5752 25.2741 58.5384 24.5094 58.5877C23.9743 58.6216 23.4546 58.8004 23.2512 59.3889C23.0747 59.8992 23.0843 60.4172 23.4459 60.8464C24.0052 61.5103 24.7842 61.4871 25.5344 61.3837C26.1467 61.2996 26.6056 60.9024 26.7493 60.2916C26.8756 59.7562 26.8804 59.1918 26.946 58.5752H26.9469Z" fill="#050505"/>
<path d="M37.5608 51.7347C38.9985 51.7038 40.3599 52.0275 41.6597 52.62C42.2584 52.8925 42.5082 53.3274 42.4445 53.917C42.3819 54.4988 41.9894 54.982 41.4263 55.0381C41.1265 55.068 40.788 54.9849 40.5036 54.8641C39.495 54.435 38.4518 54.2272 37.3622 54.3171C37.0864 54.3393 36.7789 54.4224 36.559 54.579C36.0123 54.9704 36.1801 55.788 36.8791 56.076C37.4692 56.3186 38.0969 56.4675 38.7015 56.6762C39.6686 57.0116 40.6434 57.3276 41.5883 57.7181C42.432 58.066 43.0163 58.699 43.1976 59.6278C43.4888 61.1229 42.8967 62.3716 41.5603 63.1186C40.223 63.8657 38.7564 63.9875 37.2716 63.9585C35.8812 63.9314 34.5381 63.6521 33.2769 63.0346C32.4727 62.6402 32.2134 62.0855 32.5238 61.3761C32.9028 60.5102 33.5247 60.2396 34.3722 60.5421C35.1831 60.831 35.9892 61.1625 36.8261 61.3423C37.3545 61.4563 37.9446 61.3829 38.4884 61.2882C38.9493 61.207 39.2848 60.8958 39.3138 60.3565C39.3427 59.8133 39.0351 59.507 38.5819 59.3485C37.5097 58.9735 36.424 58.6401 35.3489 58.2728C34.8803 58.1124 34.4243 57.9142 33.9644 57.7297C31.6686 56.8077 31.928 53.7275 33.6413 52.6683C34.8533 51.9193 36.1839 51.7492 37.5599 51.7347H37.5608Z" fill="#050505"/>
<path d="M20.4425 37.1151C22.5801 37.0465 23.7198 38.6982 23.4132 40.8824C23.2715 41.8933 22.8347 42.7844 21.9736 43.4048C20.9178 44.1645 19.4137 44.1393 18.1303 43.3198C17.0224 42.6114 16.712 41.5541 16.9116 40.3102C16.982 39.8695 17.1121 39.4394 17.2134 39.0036C17.304 38.6141 17.5094 38.5145 17.8767 38.702C18.2605 38.8982 18.6558 39.077 19.0579 39.2326C19.2015 39.2887 19.4455 39.3235 19.5246 39.2461C19.6152 39.1563 19.6123 38.9253 19.5824 38.7677C19.5197 38.4392 19.4455 38.1038 19.3153 37.7974C19.1263 37.3519 19.3452 37.2079 19.7213 37.1586C19.9594 37.1277 20.2014 37.1286 20.4415 37.1151H20.4425Z" fill="#050505"/>
<path d="M36.8876 37.1159C38.7302 37.0908 39.8998 38.2389 39.9451 40.0269C39.975 41.205 39.6578 42.2517 38.8238 43.1002C37.8412 44.1015 36.3419 44.2281 34.8599 43.4636C33.7279 42.8799 33.1793 41.753 33.3962 40.3922C33.4763 39.8887 33.6122 39.3929 33.7443 38.9C33.8215 38.6139 33.9979 38.5269 34.292 38.6728C34.7211 38.8864 35.1627 39.0778 35.6072 39.2576C35.7258 39.3059 35.936 39.3368 35.9938 39.273C36.0825 39.1773 36.124 38.9831 36.0979 38.8468C36.0285 38.4863 35.9446 38.122 35.8058 37.7837C35.6351 37.3691 35.8135 37.2145 36.1799 37.1661C36.4335 37.1323 36.6919 37.1294 36.8876 37.1159Z" fill="#050505"/>
</g>
<defs>
<clipPath id="clip0_643_1446">
<rect width="56" height="64" fill="white" transform="translate(0.0214844)"/>
</clipPath>
</defs>
</svg>
