<svg width="171" height="48" viewBox="0 0 171 48" fill="none" xmlns="http://www.w3.org/2000/svg">
<path fill-rule="evenodd" clip-rule="evenodd" d="M46.9092 16.347H40.4762V38.6595H32.7966V16.347H19.5277L17.3489 9.34264H43.1802C38.812 3.66116 31.9677 0 24.2713 0C16.5748 0 9.73258 3.66116 5.36444 9.34264H10.437L17.0009 30.4383L19.5256 22.2086H27.8716L21.7951 38.6595H12.0316L2.67311 13.7564C1.21143 16.8621 0.393066 20.3346 0.393066 24C0.393066 37.2561 11.0846 48 24.2713 48C37.4579 48 48.1494 37.254 48.1494 24C48.1494 21.3246 47.7128 18.751 46.9092 16.347Z" fill="#DA251C"/>
<path d="M61.251 33.8857V14.1141H68.7813C70.2029 14.1141 71.3843 14.3394 72.3256 14.7899C73.2733 15.234 73.9809 15.8422 74.4483 16.6145C74.9222 17.3869 75.1591 18.2622 75.1591 19.2404C75.1591 20.0449 75.0054 20.7336 74.6981 21.3064C74.3907 21.8728 73.9777 22.333 73.459 22.6869C72.9403 23.0409 72.3608 23.2951 71.7205 23.4496V23.6427C72.4185 23.6813 73.0876 23.8969 73.728 24.2895C74.3747 24.6757 74.903 25.2227 75.3128 25.9307C75.7226 26.6387 75.9275 27.4947 75.9275 28.4987C75.9275 29.522 75.681 30.4424 75.1879 31.2598C74.6949 32.0707 73.9521 32.7111 72.9595 33.1809C71.967 33.6507 70.7184 33.8857 69.2136 33.8857H61.251ZM64.8145 30.8929H68.6469C69.9404 30.8929 70.872 30.6451 71.4419 30.1495C72.0183 29.6475 72.3064 29.0039 72.3064 28.2187C72.3064 27.633 72.1623 27.1053 71.8742 26.6355C71.586 26.1592 71.1762 25.7859 70.6447 25.5156C70.1132 25.2388 69.4793 25.1005 68.7429 25.1005H64.8145V30.8929ZM64.8145 22.5228H68.3395C68.9542 22.5228 69.5081 22.4102 70.0012 22.1849C70.4942 21.9532 70.8817 21.6282 71.1634 21.2099C71.4516 20.7851 71.5956 20.2831 71.5956 19.7038C71.5956 18.9379 71.3267 18.3072 70.7888 17.8116C70.2573 17.3161 69.4665 17.0683 68.4164 17.0683H64.8145V22.5228Z" fill="#1D283A"/>
<path d="M78.8857 14.1143H82.4204V27.5913H82.6029L91.8526 14.1143H95.0511V33.8858H91.4876V20.4184H91.3243L82.0458 33.8858H78.8857V14.1143Z" fill="#1D283A"/>
<path d="M98.0098 17.1167V14.1143H113.704V17.1167H107.624V33.8858H104.09V17.1167H98.0098Z" fill="#1D283A"/>
<path d="M116.662 33.8858V14.1143H129.456V17.1167H120.226V22.4843H128.793V25.4867H120.226V30.8834H129.533V33.8858H116.662Z" fill="#1D283A"/>
<path d="M132.492 33.8858V14.1143H139.869C141.38 14.1143 142.648 14.3974 143.672 14.9638C144.703 15.5302 145.481 16.3089 146.007 17.3001C146.538 18.2848 146.804 19.4047 146.804 20.6597C146.804 21.9276 146.538 23.0539 146.007 24.0386C145.475 25.0234 144.691 25.7989 143.653 26.3653C142.616 26.9252 141.338 27.2052 139.821 27.2052H134.932V24.2607H139.341C140.224 24.2607 140.948 24.1062 141.511 23.7973C142.075 23.4884 142.491 23.0636 142.76 22.5229C143.035 21.9823 143.173 21.3612 143.173 20.6597C143.173 19.9582 143.035 19.3403 142.76 18.8061C142.491 18.2719 142.072 17.8568 141.502 17.5608C140.938 17.2583 140.211 17.107 139.321 17.107H136.056V33.8858H132.492Z" fill="#1D283A"/>
<path d="M149.762 14.1143H154.122L159.962 28.4409H160.193L166.033 14.1143H170.393V33.8858H166.974V20.3025H166.791L161.355 33.8279H158.8L153.364 20.2736H153.181V33.8858H149.762V14.1143Z" fill="#1D283A"/>
</svg>
